<svg width="26" height="26" viewBox="0 0 26 26" fill="none" xmlns="http://www.w3.org/2000/svg">
<path d="M25.9959 9.73131C25.9951 9.66712 25.9748 9.60619 25.9586 9.54444C25.948 9.50381 25.9456 9.46075 25.9285 9.42256C25.9098 9.38031 25.8765 9.34619 25.8513 9.308C25.818 9.25844 25.7887 9.20644 25.7457 9.165C25.7408 9.16012 25.7392 9.15363 25.7335 9.14875L21.3769 5.19919C21.3013 5.13094 21.2144 5.08463 21.125 5.04888V0.8125C21.125 0.364 20.7618 0 20.3125 0H5.6875C5.23819 0 4.875 0.364 4.875 0.8125V5.05456C4.81731 5.08544 4.75637 5.109 4.70519 5.1545L0.268937 9.1455C0.26325 9.15037 0.261625 9.15769 0.255937 9.16256C0.212062 9.20481 0.182 9.25681 0.147875 9.308C0.122687 9.34619 0.0901875 9.3795 0.0723125 9.42013C0.0544375 9.46075 0.0511875 9.50625 0.0398125 9.55013C0.024375 9.60944 0.004875 9.66794 0.0040625 9.72888C0.0040625 9.73619 0 9.74269 0 9.75V25.1875C0 25.636 0.363188 26 0.8125 26H25.1875C25.6368 26 26 25.636 26 25.1875V9.75C26 9.7435 25.9967 9.73781 25.9959 9.73131ZM6.5 1.625H19.5V13.3608L13 16.9471L6.5 13.3608V1.625ZM1.625 10.1116L4.875 7.18819V12.4637L1.625 10.6706V10.1116ZM24.375 24.375H1.625V12.5271L12.6076 18.5859C12.7294 18.6534 12.8651 18.6875 13 18.6875C13.1349 18.6875 13.2706 18.6534 13.3924 18.5859L24.375 12.5271V24.375ZM24.375 10.6714L21.125 12.4646V7.16462L24.375 10.1108V10.6714Z" fill="#93F8FF"/>
<path d="M8.9375 5.6875H17.0625C17.5118 5.6875 17.875 5.3235 17.875 4.875C17.875 4.4265 17.5118 4.0625 17.0625 4.0625H8.9375C8.48819 4.0625 8.125 4.4265 8.125 4.875C8.125 5.3235 8.48819 5.6875 8.9375 5.6875Z" fill="#93F8FF"/>
<path d="M8.9375 8.9375H17.0625C17.5118 8.9375 17.875 8.5735 17.875 8.125C17.875 7.6765 17.5118 7.3125 17.0625 7.3125H8.9375C8.48819 7.3125 8.125 7.6765 8.125 8.125C8.125 8.5735 8.48819 8.9375 8.9375 8.9375Z" fill="#93F8FF"/>
<path d="M14.625 11.375C14.625 10.9265 14.2618 10.5625 13.8125 10.5625H8.9375C8.48819 10.5625 8.125 10.9265 8.125 11.375C8.125 11.8235 8.48819 12.1875 8.9375 12.1875H13.8125C14.2618 12.1875 14.625 11.8235 14.625 11.375Z" fill="#93F8FF"/>
</svg>
