<svg width="80" height="80" viewBox="0 0 80 80" fill="none" xmlns="http://www.w3.org/2000/svg">
<g clip-path="url(#clip0)">
<path d="M24.1235 63.7421L16.4996 57.3193C15.8313 56.7554 15.7782 55.6958 16.3873 55.0604C18.8403 52.5006 22.7069 52.3023 25.3802 54.599L35.8923 63.6304L24.1235 63.7421Z" fill="#D98868"/>
<path d="M34.7759 0.0640877C34.4402 -0.0982657 34.0368 0.0592049 33.8982 0.405885C32.9699 2.73193 30.4986 11.1639 39.6887 18.5651C40.0146 18.8275 40.5016 18.7103 40.6762 18.3301C41.961 15.5353 45.6878 5.35706 34.7759 0.0640877Z" fill="#FFD659"/>
<path d="M64.3059 34.4977C64.3059 47.9657 54.038 63.2031 39.9999 63.2031C25.9618 63.2031 15.6938 47.9657 15.6938 34.4977C15.6938 21.029 29.0203 10.5475 39.9999 17.2681C50.9972 10.5475 64.3059 21.029 64.3059 34.4977Z" fill="#FF4B26"/>
<path d="M15.312 67.6752C15.312 68.3301 15.8394 68.8605 16.49 68.8605H36.4357C39.3269 68.8605 42.1705 69.6002 44.6998 71.0101C47.2291 72.4194 50.0734 73.1592 52.964 73.1592H71.3282V70.3937C71.3282 65.6982 67.5465 61.8915 62.8822 61.8915H21.0573C17.8846 61.8915 15.312 64.4806 15.312 67.6752Z" fill="#E89776"/>
<path d="M56.7644 59.1504H39.0435C36.491 59.1504 34.4219 61.2195 34.4219 63.772C34.4219 64.248 34.7997 64.6375 35.2758 64.6503C38.048 64.726 46.7516 65.0757 49.11 66.5265C51.9274 68.2593 56.6039 73.1592 59.8992 73.1592H71.328C71.328 73.1592 74.4671 59.1504 56.7644 59.1504Z" fill="#EBAD88"/>
<path d="M79.2657 80H57.9314C57.7026 80 57.492 79.8749 57.3821 79.6741L54.2461 73.9136C54.0435 73.5406 54.2626 73.0786 54.6795 73.0005L73.0993 69.5374C73.3562 69.4891 73.6169 69.6063 73.7511 69.8315L79.5342 79.5276C79.6587 79.7357 79.5086 80 79.2657 80Z" fill="#FF4B26"/>
<path d="M57.168 4.77722L66.6003 4.77661C67.2473 4.77661 67.7722 4.25171 67.7722 3.60474C67.7722 2.95715 67.2473 2.43286 66.5997 2.43286L57.168 2.43347C56.5204 2.43347 55.9961 2.95837 55.9961 3.60535C55.9961 4.25293 56.521 4.77722 57.168 4.77722Z" fill="#50536E"/>
<path d="M55.9961 8.43445C55.9961 9.08142 56.521 9.60632 57.168 9.60632L76.4838 9.60571C77.1307 9.60571 77.6556 9.08081 77.6556 8.43384C77.6556 7.78625 77.1307 7.26196 76.4838 7.26196L57.168 7.26257C56.521 7.26257 55.9961 7.78687 55.9961 8.43445Z" fill="#50536E"/>
<path d="M76.4836 12.0905L57.1685 12.0911C56.5209 12.0911 55.9966 12.6154 55.9966 13.2629C55.9966 13.9099 56.5209 14.4348 57.1685 14.4348L76.4836 14.4342C77.1312 14.4342 77.6555 13.9093 77.6555 13.2623C77.6555 12.6147 77.1306 12.0905 76.4836 12.0905Z" fill="#50536E"/>
<path d="M25.0298 40.7214H12.0366V18.1885C12.0366 17.5415 11.5123 17.0166 10.8647 17.0166C10.2178 17.0166 9.69287 17.5415 9.69287 18.1885V41.8933C9.69287 42.5403 10.2178 43.0652 10.8647 43.0652H25.0298C25.6774 43.0652 26.2017 42.5403 26.2017 41.8933C26.2017 41.2457 25.6774 40.7214 25.0298 40.7214Z" fill="#50536E"/>
<path d="M68.7323 24.3597H46.1182C45.4712 24.3597 44.9463 24.8846 44.9463 25.5316C44.9463 26.1792 45.4712 26.7035 46.1182 26.7035H67.5604V36.427C67.5604 37.074 68.0847 37.5989 68.7323 37.5989C69.3793 37.5989 69.9042 37.074 69.9042 36.427V25.5316C69.9042 24.8846 69.3793 24.3597 68.7323 24.3597Z" fill="#50536E"/>
<path d="M21.2476 23.4204H1.28784C0.576172 23.4204 0 22.8436 0 22.1326V3.78296C0 3.07129 0.576782 2.49512 1.28784 2.49512H21.2476C21.9586 2.49512 22.5348 3.07129 22.5348 3.78296V22.1326C22.5354 22.8442 21.9586 23.4204 21.2476 23.4204Z" fill="#B5FCFF"/>
<path d="M11.8617 6.00464L13.3638 9.01367C13.5256 9.33777 13.8381 9.56238 14.2 9.61426L17.5588 10.097C18.47 10.2283 18.8338 11.3354 18.1746 11.9708L15.7442 14.3127C15.4823 14.5648 15.3627 14.9286 15.4244 15.285L15.9981 18.5919C16.1537 19.4891 15.201 20.1739 14.3862 19.7498L11.3826 18.1885C11.0585 18.02 10.6722 18.02 10.3481 18.1885L7.34453 19.7498C6.5291 20.1733 5.57634 19.4891 5.73259 18.5919L6.30632 15.285C6.36796 14.9286 6.24833 14.5648 5.98649 14.3127L3.55607 11.9708C2.89689 11.3354 3.26066 10.2283 4.17192 10.097L7.53068 9.61426C7.89262 9.56238 8.20512 9.33777 8.36687 9.01367L9.86894 6.00464C10.2767 5.18799 11.454 5.18799 11.8617 6.00464Z" fill="#FFD659"/>
<path d="M78.7122 54.0039H58.7524C58.0414 54.0039 57.4646 53.4277 57.4646 52.7167V34.3665C57.4646 33.6548 58.0414 33.0786 58.7524 33.0786H78.7122C79.4232 33.0786 80 33.6554 80 34.3665V52.7167C80 53.4277 79.4232 54.0039 78.7122 54.0039Z" fill="#B5FCFF"/>
<path d="M69.7292 36.427L71.2312 39.436C71.393 39.7601 71.7055 39.9847 72.0674 40.0372L75.4262 40.5194C76.3375 40.6506 76.7012 41.7578 76.042 42.3932L73.6116 44.7351C73.3498 44.9878 73.2301 45.3509 73.2918 45.7074L73.8655 49.0143C74.0212 49.9121 73.0684 50.5963 72.2536 50.1727L69.2494 48.6108C68.9259 48.443 68.5396 48.443 68.2155 48.6108L65.212 50.1727C64.3965 50.5963 63.4438 49.9121 63.5994 49.0143L64.1738 45.7074C64.2354 45.3509 64.1158 44.9878 63.8539 44.7351L61.4235 42.3932C60.7643 41.7578 61.1281 40.65 62.0394 40.5194L65.3981 40.0372C65.7594 39.9847 66.0726 39.7601 66.2343 39.436L67.7364 36.427C68.1435 35.611 69.3215 35.611 69.7292 36.427Z" fill="#FFD659"/>
</g>
<defs>
<clipPath id="clip0">
<rect width="80" height="80" fill="white"/>
</clipPath>
</defs>
</svg>
