<svg width="80" height="80" viewBox="0 0 80 80" fill="none" xmlns="http://www.w3.org/2000/svg">
<path fill-rule="evenodd" clip-rule="evenodd" d="M67.5871 6.89572C69.8727 6.89572 71.7249 8.74857 71.7249 11.0335V22.067L35.8665 24.8255L0.00744629 22.067V11.0335C0.00744629 8.74857 1.8603 6.89572 4.14524 6.89572H67.5871Z" fill="#EB5463"/>
<path fill-rule="evenodd" clip-rule="evenodd" d="M47.4377 67.5797H4.14524C1.8603 67.5797 0.00744629 65.7274 0.00744629 63.4425V22.067H71.7249V49.0988L47.4377 67.5797Z" fill="#E4E8EB"/>
<path fill-rule="evenodd" clip-rule="evenodd" d="M13.7994 0H15.1787C16.702 0 17.9366 1.23523 17.9366 2.75853V11.0335C17.9366 12.5568 16.702 13.792 15.1787 13.792H13.7994C12.2761 13.792 11.0409 12.5568 11.0409 11.0335V2.75853C11.0409 1.23523 12.2761 0 13.7994 0Z" fill="#E4E8EB"/>
<path fill-rule="evenodd" clip-rule="evenodd" d="M34.4873 0H35.8665C37.3898 0 38.6245 1.23523 38.6245 2.75853V11.0335C38.6245 12.5568 37.3898 13.792 35.8665 13.792H34.4873C32.964 13.792 31.7288 12.5568 31.7288 11.0335V2.75853C31.7288 1.23523 32.964 0 34.4873 0Z" fill="#E4E8EB"/>
<path fill-rule="evenodd" clip-rule="evenodd" d="M56.5542 0H57.9328C59.4567 0 60.6914 1.23523 60.6914 2.75853V11.0335C60.6914 12.5568 59.4567 13.792 57.9328 13.792H56.5542C55.0303 13.792 53.7957 12.5568 53.7957 11.0335V2.75853C53.7957 1.23523 55.0303 0 56.5542 0Z" fill="#E4E8EB"/>
<path fill-rule="evenodd" clip-rule="evenodd" d="M79.9999 63.4425C80.0029 71.5905 74.0745 78.529 66.0254 79.7972C57.9768 81.0648 50.2023 76.2861 47.6995 68.5317C47.603 68.2144 47.5066 67.897 47.4376 67.5797C47.0764 66.2303 46.8957 64.8395 46.9 63.4425C46.9 54.3021 54.3096 46.8919 63.4499 46.8919C72.5903 46.8919 79.9999 54.3021 79.9999 63.4425Z" fill="#9ED26A"/>
<path fill-rule="evenodd" clip-rule="evenodd" d="M12.4202 28.9627H20.6951C21.4568 28.9627 22.0744 29.5803 22.0744 30.342V38.617C22.0744 39.3786 21.4568 39.9962 20.6951 39.9962H12.4202C11.6585 39.9962 11.0409 39.3786 11.0409 38.617V30.342C11.0409 29.5803 11.6585 28.9627 12.4202 28.9627Z" fill="#5E8FAA"/>
<path fill-rule="evenodd" clip-rule="evenodd" d="M31.7286 28.9627H40.0036C40.7652 28.9627 41.3829 29.5803 41.3829 30.342V38.617C41.3829 39.3786 40.7652 39.9962 40.0036 39.9962H31.7286C30.967 39.9962 30.3494 39.3786 30.3494 38.617V30.342C30.3494 29.5803 30.967 28.9627 31.7286 28.9627Z" fill="#5E8FAA"/>
<path fill-rule="evenodd" clip-rule="evenodd" d="M12.4202 45.5127H20.6951C21.4568 45.5127 22.0744 46.1303 22.0744 46.8919V55.1669C22.0744 55.9292 21.4568 56.5462 20.6951 56.5462H12.4202C11.6585 56.5462 11.0409 55.9292 11.0409 55.1669V46.8919C11.0409 46.1303 11.6585 45.5127 12.4202 45.5127Z" fill="#5E8FAA"/>
<path fill-rule="evenodd" clip-rule="evenodd" d="M31.7286 45.5127H40.0036C40.7652 45.5127 41.3829 46.1303 41.3829 46.8919V55.1669C41.3829 55.9292 40.7652 56.5462 40.0036 56.5462H31.7286C30.967 56.5462 30.3494 55.9292 30.3494 55.1669V46.8919C30.3494 46.1303 30.967 45.5127 31.7286 45.5127Z" fill="#5E8FAA"/>
<path fill-rule="evenodd" clip-rule="evenodd" d="M51.0372 28.9627H59.3122C60.0738 28.9627 60.6915 29.5803 60.6915 30.342V38.617C60.6915 39.3786 60.0738 39.9962 59.3122 39.9962H51.0372C50.2756 39.9962 49.658 39.3786 49.658 38.617V30.342C49.658 29.5803 50.2756 28.9627 51.0372 28.9627Z" fill="#5E8FAA"/>
<path fill-rule="evenodd" clip-rule="evenodd" d="M60.319 70.3382C59.9297 70.337 59.5592 70.1722 59.2986 69.8829L55.5331 65.7457C55.1675 65.3869 55.0308 64.8547 55.1779 64.3646C55.3256 63.874 55.7327 63.5054 56.2356 63.4071C56.7378 63.3094 57.2535 63.498 57.5745 63.8972L60.3331 66.9041L69.3386 57.0014C69.8598 56.49 70.6891 56.4735 71.2305 56.9636C71.7712 57.4537 71.8371 58.2806 71.38 58.8494L61.3535 69.8829C61.0892 70.1753 60.7133 70.3413 60.319 70.3382Z" fill="#F4F6F8"/>
<path fill-rule="evenodd" clip-rule="evenodd" d="M5.52441 51.0297C4.76276 51.0297 4.14514 50.4121 4.14514 49.6505V48.2712C4.14514 47.5096 4.76276 46.8919 5.52441 46.8919C6.28605 46.8919 6.90367 47.5096 6.90367 48.2712V49.6505C6.90367 50.4121 6.28605 51.0297 5.52441 51.0297Z" fill="#F4F6F8"/>
<path fill-rule="evenodd" clip-rule="evenodd" d="M11.0409 63.4425H6.90367C5.37977 63.4425 4.14514 62.2073 4.14514 60.684V55.1669C4.14514 54.4053 4.76276 53.7883 5.52441 53.7883C6.28605 53.7883 6.90367 54.4053 6.90367 55.1669V60.684H11.0409C11.8025 60.684 12.4201 61.3016 12.4201 62.0632C12.4201 62.8249 11.8025 63.4425 11.0409 63.4425Z" fill="#F4F6F8"/>
<path fill-rule="evenodd" clip-rule="evenodd" d="M17.9368 63.4425H16.5581C15.7958 63.4425 15.1788 62.8249 15.1788 62.0632C15.1788 61.3016 15.7958 60.684 16.5581 60.684H17.9368C18.6984 60.684 19.316 61.3016 19.316 62.0632C19.316 62.8249 18.6984 63.4425 17.9368 63.4425Z" fill="#F4F6F8"/>
</svg>
