<svg width="80" height="80" viewBox="0 0 80 80" fill="none" xmlns="http://www.w3.org/2000/svg">
<path d="M68.4209 0.40155C67.0375 0.40155 11.9841 0.40155 11.2703 0.40155L0 11.6719V49.7895C0 50.4226 0.513281 50.9359 1.14656 50.9359C6.27297 50.9359 42.1344 50.9359 46.7241 50.9359H69.2633V27.0609C69.2633 25.8286 69.2633 2.40436 69.2633 1.24358C69.2633 0.778738 68.8861 0.40155 68.4209 0.40155Z" fill="#FFF6E9"/>
<path d="M55.9334 28.0042H12.0128C11.3465 28.0042 10.8065 27.4641 10.8065 26.798C10.8065 26.1317 11.3467 25.5917 12.0128 25.5917H55.9334C56.5996 25.5917 57.1396 26.1319 57.1396 26.798C57.1396 27.4641 56.5996 28.0042 55.9334 28.0042Z" fill="#F9E4C7"/>
<path d="M55.9334 34.6939H12.0128C11.3465 34.6939 10.8065 34.1537 10.8065 33.4877C10.8065 32.8216 11.3467 32.2814 12.0128 32.2814H55.9334C56.5996 32.2814 57.1396 32.8216 57.1396 33.4877C57.1396 34.1537 56.5996 34.6939 55.9334 34.6939Z" fill="#F9E4C7"/>
<path d="M55.9334 41.3838H12.0128C11.3465 41.3838 10.8065 40.8436 10.8065 40.1775C10.8065 39.5114 11.3467 38.9713 12.0128 38.9713H55.9334C56.5996 38.9713 57.1396 39.5114 57.1396 40.1775C57.1396 40.8436 56.5996 41.3838 55.9334 41.3838Z" fill="#F9E4C7"/>
<path d="M41.331 12.8123H27.9322C26.8946 12.8123 26.0535 13.6534 26.0535 14.6911V15.8831C26.0535 16.9208 26.8946 17.7619 27.9322 17.7619H41.331C42.3686 17.7619 43.2097 16.9208 43.2097 15.8831V14.6911C43.2097 13.6534 42.3686 12.8123 41.331 12.8123Z" fill="#C46F5F"/>
<path d="M41.331 15.1262H27.9322C27.1505 15.1262 26.4807 14.6486 26.1977 13.9692C26.105 14.1916 26.0535 14.4351 26.0535 14.6909V15.883C26.0535 16.9206 26.8946 17.7617 27.9322 17.7617H41.331C42.3686 17.7617 43.2097 16.9206 43.2097 15.883V14.6909C43.2097 14.4351 43.1582 14.1914 43.0655 13.9692C42.7825 14.6486 42.1127 15.1262 41.331 15.1262Z" fill="#B45F4A"/>
<path d="M50.4843 56.097V79.0045C50.4843 79.4178 50.8961 79.7045 51.2836 79.5611L62.2155 75.5142C62.3485 75.465 62.4946 75.465 62.6275 75.5142L73.5594 79.5611C73.9469 79.7045 74.3588 79.4178 74.3588 79.0045V56.0969C67.6621 62.4563 57.1889 62.4639 50.4843 56.097Z" fill="#54A0FF"/>
<path d="M69.1995 59.4848C64.8946 61.3197 59.9999 61.3416 55.6437 59.4848V77.9469L62.2156 75.5141C62.3485 75.4648 62.4946 75.4648 62.6276 75.5141L69.1995 77.9469V59.4848Z" fill="#ACD6FC"/>
<path d="M62.4214 25.9416C52.7286 25.9416 44.843 33.827 44.843 43.5198C44.843 53.2127 52.7286 61.0983 62.4214 61.0983C72.1142 61.0983 79.9999 53.2127 79.9999 43.5198C79.9999 33.827 72.1142 25.9416 62.4214 25.9416Z" fill="#FECA57"/>
<path d="M62.4214 31.8723C55.9989 31.8723 50.7739 37.0975 50.7739 43.5198C50.7739 49.9423 55.9991 55.1673 62.4214 55.1673C68.8438 55.1673 74.0689 49.9423 74.0689 43.5198C74.0691 37.0975 68.8439 31.8723 62.4214 31.8723Z" fill="#F4B537"/>
<path d="M68.0669 42.262C68.3783 41.9584 68.2064 41.4297 67.7761 41.367L64.6742 40.9163C64.5033 40.8914 64.3556 40.7841 64.2792 40.6292L62.892 37.8184C62.6995 37.4284 62.1434 37.4284 61.9509 37.8184L60.5637 40.6292C60.4873 40.7841 60.3395 40.8914 60.1687 40.9163L57.0669 41.367C56.6365 41.4295 56.4647 41.9584 56.7761 42.262L59.0206 44.4499C59.1444 44.5703 59.2008 44.7441 59.1715 44.9142L58.6417 48.0034C58.5681 48.432 59.0181 48.7589 59.403 48.5566L62.1773 47.098C62.3301 47.0177 62.5128 47.0177 62.6656 47.098L65.44 48.5566C65.825 48.7589 66.2748 48.432 66.2012 48.0034L65.6714 44.9142C65.6422 44.7441 65.6986 44.5703 65.8223 44.4499L68.0669 42.262Z" fill="#FCD486"/>
<path d="M10.3667 11.6719H0L11.2703 0.40155V10.7683C11.2703 11.2673 10.8658 11.6719 10.3667 11.6719Z" fill="#F9E4C7"/>
</svg>
