<svg width="80" height="78" fill="none" xmlns="http://www.w3.org/2000/svg"><path d="M25.547 76.703a6.107 6.107 0 01-4.813-2.328l-18.11-22.5c-1.187-1.5-1.655-3.406-1.187-5.281L7.907 18.5c.405-1.86 1.655-3.36 3.358-4.188l26.172-12.5a6.165 6.165 0 012.688-.625c.937 0 1.86.204 2.687.625l26.172 12.47c1.703.827 2.953 2.327 3.36 4.187l6.468 28.093c.407 1.86 0 3.782-1.187 5.282L59.53 74.328c-1.187 1.453-2.953 2.328-4.812 2.328l-29.172.047z" fill="#326DE6"/><path d="M40.078 2.484c.719 0 1.453.157 2.125.47l26.172 12.452c1.344.672 2.375 1.906 2.688 3.36l6.468 28.093c.36 1.5 0 3.047-.984 4.235l-18.11 22.515a4.933 4.933 0 01-3.874 1.86H25.547c-1.5 0-2.953-.672-3.875-1.86l-18.11-22.5a5.131 5.131 0 01-.984-4.234l6.469-28.094c.36-1.5 1.344-2.734 2.687-3.36L37.906 2.907a6.1 6.1 0 012.172-.422zm0-2.437c-1.094 0-2.172.266-3.203.719l-26.172 12.53a7.345 7.345 0 00-4.031 5.017L.203 46.39c-.515 2.218 0 4.5 1.453 6.312l18.11 22.5c1.39 1.766 3.515 2.734 5.734 2.734h29.016c2.218 0 4.343-.984 5.734-2.734l18.11-22.5c1.453-1.766 1.968-4.094 1.453-6.312l-6.47-28.094a7.346 7.346 0 00-4.03-5.016L43.233.766c-.984-.454-2.078-.72-3.156-.72z" fill="#fff"/><path d="M66.297 44.64c-.047 0-.047 0 0 0h-.047c-.047 0-.11 0-.11-.046-.109 0-.202-.047-.312-.047-.36-.047-.672-.11-.984-.11-.156 0-.313 0-.516-.046h-.047c-1.093-.11-1.968-.203-2.797-.47-.359-.155-.468-.358-.562-.562 0-.047-.047-.047-.047-.109l-.672-.203a20.59 20.59 0 00-.36-7.297 21.234 21.234 0 00-2.89-6.781l.516-.469v-.11c0-.265.047-.515.265-.78.625-.563 1.391-1.032 2.329-1.61.156-.11.312-.156.468-.266.313-.156.563-.312.875-.515.047-.047.157-.11.266-.203.047-.047.11-.047.11-.11.718-.625.874-1.656.359-2.328-.266-.36-.72-.562-1.188-.562-.406 0-.781.156-1.14.406l-.11.11c-.11.046-.156.155-.265.202a9.19 9.19 0 00-.672.72c-.11.108-.203.265-.36.358-.718.782-1.39 1.391-2.062 1.86a.802.802 0 01-.469.156c-.11 0-.203 0-.312-.047h-.11l-.625.407c-.672-.72-1.39-1.344-2.125-1.97a20.59 20.59 0 00-10.812-4.296l-.047-.672-.11-.11c-.156-.156-.359-.312-.406-.671-.047-.828.047-1.766.156-2.797v-.047c0-.156.047-.36.11-.516.047-.312.11-.625.156-.984v-.469c0-.937-.719-1.703-1.61-1.703-.406 0-.827.203-1.14.516-.312.312-.469.719-.469 1.187v.422c0 .36.047.672.157.985.046.156.046.312.109.515v.047c.11 1.031.266 1.969.156 2.797-.047.36-.265.515-.406.672l-.11.11-.046.671c-.938.11-1.86.203-2.797.406-3.985.875-7.5 2.89-10.235 5.797l-.515-.36h-.11c-.109 0-.203.048-.312.048a.801.801 0 01-.469-.157c-.672-.468-1.344-1.14-2.062-1.906-.11-.11-.203-.265-.36-.36a5.724 5.724 0 00-.672-.718c-.046-.047-.156-.11-.265-.203-.047-.047-.11-.047-.11-.11a1.757 1.757 0 00-1.14-.406c-.469 0-.938.203-1.188.563-.515.672-.36 1.703.36 2.328.047 0 .047.047.11.047.108.047.155.156.265.203.312.203.562.36.875.515.156.047.312.157.468.266.938.563 1.704 1.031 2.329 1.61.265.265.265.515.265.78v.11l.516.469c-.11.156-.203.265-.266.406-2.594 4.094-3.562 8.89-2.89 13.656l-.672.203c0 .047-.047.047-.047.11-.11.203-.266.406-.563.562-.78.266-1.703.36-2.797.47h-.046c-.157 0-.36 0-.516.046-.313 0-.625.047-.984.11-.11 0-.204.046-.313.046-.047 0-.11 0-.156.047-.938.203-1.5 1.094-1.344 1.906.156.72.828 1.188 1.656 1.188.157 0 .266 0 .407-.047.046 0 .109 0 .109-.047.11 0 .203-.047.312-.047.36-.11.625-.203.938-.36.156-.046.312-.155.469-.202h.047c.984-.36 1.859-.672 2.687-.782h.11c.312 0 .515.157.671.266.047 0 .047.047.11.047l.718-.11a20.402 20.402 0 006.782 9.72c.718.562 1.453 1.03 2.218 1.5l-.312.671c0 .047.047.047.047.11.11.203.203.468.11.828-.313.781-.782 1.547-1.345 2.437v.047c-.109.156-.203.266-.312.406-.203.266-.36.516-.563.828a.992.992 0 00-.156.266c0 .047-.047.11-.047.11-.406.874-.11 1.859.672 2.218.203.11.406.156.625.156.625 0 1.235-.406 1.547-.984 0-.047.047-.11.047-.11.047-.109.11-.202.156-.265.156-.36.203-.625.313-.937.047-.157.11-.313.156-.47.36-1.03.625-1.858 1.094-2.593.203-.312.468-.36.672-.469.046 0 .046 0 .109-.047l.36-.671a20.343 20.343 0 007.234 1.343c1.5 0 3.047-.156 4.5-.515a21.353 21.353 0 002.687-.782l.313.563c.047 0 .047 0 .11.047.265.047.468.156.67.469.407.718.72 1.609 1.095 2.593v.047c.047.157.11.313.156.469.11.313.156.625.312.938.047.109.11.156.157.265 0 .047.047.11.047.11.312.624.937.984 1.546.984.204 0 .407-.047.625-.156.36-.204.672-.516.782-.938.11-.406.11-.875-.11-1.297 0-.047-.047-.047-.047-.11a1.318 1.318 0 00-.156-.265c-.156-.312-.36-.562-.562-.828-.11-.156-.203-.266-.313-.406V61.5c-.562-.875-1.094-1.656-1.344-2.438-.109-.359 0-.562.047-.828 0-.047.047-.047.047-.109l-.265-.625c2.734-1.61 5.062-3.875 6.828-6.672.937-1.453 1.656-3.047 2.172-4.656l.625.11c.046 0 .046-.048.109-.048.203-.109.36-.265.672-.265h.11c.827.11 1.702.406 2.687.781h.047c.156.047.312.156.468.203.313.156.563.266.938.36.11 0 .203.046.312.046.047 0 .11 0 .157.047.156.047.265.047.406.047.781 0 1.453-.516 1.656-1.187-.078-.547-.64-1.375-1.578-1.625zm-23.938-2.53l-2.28 1.093-2.282-1.094-.563-2.437 1.547-1.969h2.532l1.546 1.969-.5 2.437zm13.5-5.391c.407 1.765.516 3.515.36 5.218l-7.922-2.28A1.409 1.409 0 0147.313 38c.046-.203.156-.406.312-.563l6.266-5.64a17.172 17.172 0 011.968 4.922zm-4.453-8.016l-6.78 4.813a1.375 1.375 0 01-1.813-.313c-.157-.156-.204-.36-.266-.562l-.469-8.438a15.72 15.72 0 019.328 4.5zm-15-4.234c.563-.11 1.094-.203 1.657-.313l-.47 8.282c-.046.718-.624 1.343-1.39 1.343-.203 0-.469-.047-.625-.156l-6.875-4.922c2.11-2.125 4.75-3.562 7.703-4.234zM26.22 31.812l6.156 5.485c.563.469.625 1.344.156 1.906-.156.203-.36.36-.625.406l-8.015 2.328c-.313-3.5.468-7.078 2.328-10.124zm-1.406 14.016l8.218-1.39a1.397 1.397 0 011.453 1.093c.047.313.047.563-.046.828l-3.157 7.61c-2.89-1.875-5.218-4.735-6.468-8.14zm18.89 10.297a16.422 16.422 0 01-3.625.406c-1.812 0-3.562-.312-5.219-.828l4.094-7.39c.406-.47 1.094-.672 1.656-.36.266.156.47.36.625.563l3.985 7.187c-.485.156-1 .266-1.516.422zm10.078-7.188c-1.297 2.063-3 3.72-4.968 5.016l-3.266-7.812a1.408 1.408 0 01.719-1.61c.203-.11.468-.156.718-.156l8.282 1.39c-.297 1.157-.813 2.188-1.485 3.172z" fill="#fff"/></svg>