<svg width="80" height="80" fill="none" xmlns="http://www.w3.org/2000/svg"><path fill="#fff" d="M0 0h80v80H0z"/><path d="M70.245 38.245c-.058.02-.135.154-.135.23-.019.499-.019 1.841-.019 2.762 0 .019.038.076.077.076.192.02.652.02 1.035.02.537 0 .863-.077 1.036-.154.46-.23.67-.729.67-1.266 0-1.227-.862-1.687-2.128-1.687a1.757 1.757 0 00-.536.02zm3.26 5.657c0-1.246-.921-1.937-2.59-1.937-.076 0-.613-.019-.728.02-.038.019-.096.038-.096.076 0 .901-.019 2.32.02 2.876.018.25.21.576.421.69.23.135.748.154 1.093.154 1.016-.038 1.88-.594 1.88-1.88zm-5.83-6.347c.134 0 .499.038 1.477.038.92 0 1.649-.019 2.55-.019 1.093 0 2.608.384 2.608 2.033 0 .805-.576 1.457-1.304 1.764-.038.019-.038.038 0 .057 1.054.269 1.994.92 1.994 2.167 0 1.208-.767 1.975-1.86 2.455-.671.287-1.496.383-2.359.383-.652 0-2.377-.077-3.336-.057-.096-.039.096-.499.173-.576.23-.019.402-.019.651-.096.346-.096.384-.191.422-.71.02-.44.02-2.013.02-3.125 0-1.534.019-2.57 0-3.068-.02-.383-.154-.517-.422-.594a21.714 21.714 0 00-.863-.134c-.038-.039.172-.46.25-.518zm-7.286 7.862c.306.249.9.345 1.418.345.69 0 1.362-.134 2.014-.729.671-.613 1.131-1.534 1.131-3.03 0-1.418-.537-2.588-1.649-3.278-.633-.384-1.438-.556-2.378-.556-.268 0-.536.019-.71.095-.037.02-.133.135-.133.211-.02.25-.02 2.206-.02 3.337 0 1.17 0 2.819.02 3.01.019.173.115.46.306.595zm-2.877-7.862c.25 0 1.17.038 1.611.038.786 0 1.361-.038 2.876-.038 1.266 0 2.32.345 3.087.978.92.786 1.4 1.898 1.4 3.24 0 1.899-.863 3.011-1.745 3.644-.863.652-2.013 1.016-3.624 1.016-.863 0-2.34-.02-3.566-.038h-.02c-.057-.115.096-.556.211-.576.326-.038.422-.057.576-.115.268-.096.306-.249.345-.71.038-.862.019-1.917.019-3.105 0-.844.02-2.493-.02-3.03-.038-.441-.23-.556-.613-.633-.192-.038-.44-.096-.786-.134-.038-.077.192-.46.25-.537z" fill="#8E714E"/><path d="M42.249 45.896a3.072 3.072 0 01-.825-.21c-.038-.02-.096-.154-.096-.212-.019-.44-.019-1.706-.019-2.55 0-.69-.115-1.285-.402-1.687-.346-.48-.825-.767-1.458-.767-.556 0-1.304.383-1.917.9-.02.02-.115.097-.096-.037 0-.135.019-.422.038-.614a.314.314 0 00-.096-.269c-.403.211-1.534.46-1.956.499-.306.058-.383.345-.057.46h.019c.345.096.575.211.748.326.134.096.115.25.115.345.02.94.02 2.397-.02 3.203-.018.306-.095.421-.325.479l.019-.02c-.173.04-.307.078-.537.097-.077.076-.077.479 0 .575.134 0 .863-.038 1.477-.038.824 0 1.265.038 1.476.038.096-.096.115-.48.057-.575-.249-.02-.421-.039-.575-.096-.23-.058-.287-.173-.307-.422-.019-.671-.019-2.09-.019-3.049 0-.268.077-.383.154-.46.287-.25.767-.422 1.17-.422.402 0 .67.134.862.288.269.23.365.556.403.786.057.537.038 1.61.038 2.55 0 .499-.038.633-.23.69a2.091 2.091 0 01-.575.115c-.096.096-.058.48 0 .576.364 0 .786-.039 1.419-.039.786 0 1.285.039 1.495.039.039-.02.058-.403.02-.499zm3.49-4.813c-.671 0-1.093.518-1.093 1.323 0 .825.364 1.764 1.4 1.764.172 0 .498-.076.651-.249.25-.23.403-.69.403-1.17.02-1.035-.498-1.668-1.361-1.668zm-.096 5.58c-.25 0-.422.077-.537.134-.537.346-.767.672-.767 1.055 0 .364.134.652.44.901.365.307.864.46 1.516.46 1.284 0 1.86-.69 1.86-1.38 0-.48-.25-.786-.729-.978-.364-.115-.997-.192-1.783-.192zm.096 3.28c-.767 0-1.323-.173-1.803-.538-.46-.345-.671-.882-.671-1.246 0-.096.02-.384.25-.633.133-.153.44-.44 1.169-.94.02-.019.038-.019.038-.057 0-.038-.019-.058-.057-.058-.595-.23-.767-.594-.825-.786v-.019c-.019-.077-.038-.153.077-.23a5.25 5.25 0 00.345-.23c.211-.134.441-.269.575-.384.02-.019.02-.057.02-.076 0-.02-.02-.058-.058-.058-.882-.288-1.323-.94-1.323-1.937 0-.651.288-1.227.805-1.591.345-.268 1.247-.614 1.822-.614h.038c.595.02.92.135 1.38.307.25.096.5.134.825.134.499 0 .71-.153.883-.326.019.02.038.096.057.25a.843.843 0 01-.173.575c-.095.134-.325.25-.556.25H48.5a1.269 1.269 0 01-.326-.058l-.058.019c-.019.019 0 .057.02.096l.019.019c.019.115.076.46.076.537 0 1.035-.422 1.495-.863 1.821a3.03 3.03 0 01-1.476.576c-.02 0-.058 0-.173.019-.057 0-.153.019-.172.019h.019c-.096.02-.345.153-.345.364 0 .192.115.422.652.46.115.02.23.02.345.02.729.057 1.61.115 2.033.249.575.21.94.729.94 1.342 0 .94-.672 1.803-1.784 2.34a3.868 3.868 0 01-1.668.383zm7.19-8.802c-.268 0-.498.057-.69.192-.499.306-.748.9-.748 1.802 0 1.649.825 2.819 2.014 2.819.345 0 .632-.096.862-.307.365-.307.556-.901.556-1.764.039-1.65-.786-2.742-1.994-2.742zm.23 5.407c-2.147 0-2.914-1.572-2.914-3.049 0-1.035.422-1.84 1.246-2.397.595-.364 1.304-.575 1.937-.575 1.649 0 2.8 1.17 2.8 2.876 0 1.15-.46 2.052-1.324 2.608-.422.269-1.15.537-1.745.537zm-22.492-5.407c-.269 0-.499.057-.69.192-.499.306-.748.9-.748 1.802 0 1.649.824 2.819 2.013 2.819.345 0 .633-.096.863-.307.364-.307.556-.901.556-1.764.02-1.65-.786-2.742-1.994-2.742zm.21 5.407c-2.147 0-2.914-1.572-2.914-3.049 0-1.035.422-1.84 1.247-2.397.594-.364 1.303-.575 1.936-.575 1.65 0 2.8 1.17 2.8 2.876 0 1.15-.46 2.052-1.323 2.608-.403.269-1.132.537-1.745.537zm-14.419-.134a.535.535 0 01-.038-.288c0-.096.019-.172.038-.191.269-.039.403-.077.556-.116.25-.057.345-.21.364-.517.039-.767.039-2.205.02-3.203v-.019c0-.115 0-.249-.135-.345a2.37 2.37 0 00-.767-.326c-.115-.038-.191-.096-.172-.172 0-.077.077-.173.25-.192.421-.038 1.495-.307 1.936-.499.019.02.057.096.057.211l-.019.135c-.019.134-.019.306-.019.46 0 .057.058.096.096.096.02 0 .057-.02.077-.02.805-.632 1.534-.862 1.917-.862.614 0 1.093.287 1.457.9.02.04.058.058.096.058.02 0 .058-.019.077-.038.748-.575 1.496-.901 1.975-.901 1.17 0 1.86.862 1.86 2.358 0 .422 0 .959-.02 1.458 0 .44-.018.843-.018 1.13 0 .058.096.27.23.308.172.096.422.134.728.172h.02c.019.096-.02.422-.077.48-.077 0-.192 0-.307-.02-.25-.019-.575-.019-.959-.019-.786 0-1.189.02-1.572.039-.02-.096-.038-.403 0-.48.23-.038.345-.077.48-.115.249-.077.306-.192.325-.517 0-.25.058-2.282-.019-2.78-.076-.5-.46-1.094-1.285-1.094-.306 0-.805.134-1.284.499a.286.286 0 00-.058.134v.019c.058.269.058.575.058 1.036v.824c0 .575-.02 1.093 0 1.496 0 .268.172.345.306.383.077.02.135.02.192.038.115.02.23.058.403.096.02.058.02.211-.02.346-.018.076-.038.115-.057.134-.422-.02-.863-.02-1.515-.02-.191 0-.517.02-.786.02-.23 0-.44.019-.575.019-.02-.02-.038-.115-.038-.25 0-.114.019-.21.057-.23.058-.019.115-.019.173-.019.153-.019.268-.057.402-.076.211-.058.288-.173.307-.46.038-.633.077-2.436-.019-2.896-.153-.729-.575-1.093-1.246-1.093-.384 0-.882.192-1.285.499a.44.44 0 00-.115.287v.748c0 .901 0 2.052.019 2.531.02.154.058.326.345.384.058.019.173.038.288.057l.23.039c.02.076.02.383-.038.479-.135 0-.269-.02-.46-.02-.27-.018-.614-.018-.979-.018-.44 0-.767.019-1.016.019-.153-.096-.288-.096-.44-.096z" fill="#442D22"/><path d="M9.804 49.444l-.517-.173s.057-2.646-.882-2.838c-.633-.728.095-31.064 2.377-.096 0 0-.786.384-.92 1.055-.154.671-.058 2.052-.058 2.052z" fill="#fff"/><path d="M9.804 49.444l-.517-.173s.057-2.646-.882-2.838c-.633-.728.095-31.064 2.377-.096 0 0-.786.384-.92 1.055-.154.671-.058 2.052-.058 2.052z" fill="#A6A385"/><path d="M10.092 46.893s4.525-2.972 3.47-9.185c-1.016-4.506-3.432-5.982-3.7-6.557-.288-.403-.575-1.113-.575-1.113l.191 12.54c0 .02-.383 3.855.614 4.315z" fill="#fff"/><path d="M10.092 46.893s4.525-2.972 3.47-9.185c-1.016-4.506-3.432-5.982-3.7-6.557-.288-.403-.575-1.113-.575-1.113l.191 12.54c0 .02-.383 3.855.614 4.315z" fill="#499D4A"/><path d="M9.018 47.066S4.761 44.17 5.011 39.05c.249-5.12 3.24-7.632 3.835-8.092.383-.403.383-.556.421-.959.269.575.211 8.495.25 9.434.115 3.605-.211 6.942-.499 7.632z" fill="#fff"/><path d="M9.018 47.066S4.761 44.17 5.011 39.05c.249-5.12 3.24-7.632 3.835-8.092.383-.403.383-.556.421-.959.269.575.211 8.495.25 9.434.115 3.605-.211 6.942-.499 7.632z" fill="#58AA50"/></svg>