<svg width="136" height="450" viewBox="0 0 136 450" fill="none" xmlns="http://www.w3.org/2000/svg">
<path opacity="0.6" d="M31.0656 0.675272C30.6101 0.362939 29.9876 0.478986 29.6753 0.934471C29.363 1.38996 29.479 2.0124 29.9345 2.32473L31.0656 0.675272ZM103.749 446.969C104.284 446.831 104.606 446.286 104.469 445.751L102.227 437.034C102.09 436.5 101.545 436.177 101.01 436.315C100.475 436.453 100.153 436.998 100.29 437.533L102.283 445.281L94.5345 447.273C93.9996 447.41 93.6775 447.955 93.815 448.49C93.9526 449.025 94.4977 449.347 95.0326 449.21L103.749 446.969ZM29.9345 2.32473C36.7455 6.99512 43.296 11.7855 49.5625 16.6755L50.7929 15.0987C44.4929 10.1827 37.9093 5.3681 31.0656 0.675272L29.9345 2.32473ZM85.6319 49.2065C97.5295 61.7729 107.486 74.6568 115.181 87.5745L116.899 86.5509C109.117 73.4867 99.0658 60.4865 87.0842 47.8315L85.6319 49.2065ZM132.372 132.46C134.949 148.82 133.094 164.678 126.116 179.446L127.925 180.301C135.091 165.134 136.981 148.865 134.347 132.149L132.372 132.46ZM95.0659 215.702C89.004 220.228 82.1708 224.543 74.5295 228.618L75.4705 230.382C83.192 226.265 90.1119 221.897 96.2625 217.304L95.0659 215.702ZM74.5295 228.618C66.9755 232.645 59.9819 236.83 53.5566 241.157L54.6739 242.816C61.0372 238.53 67.9714 234.381 75.4705 230.382L74.5295 228.618ZM17.6478 274.03C6.93456 288.308 1.14778 303.523 0.515404 319.313L2.5138 319.393C3.12776 304.063 8.74266 289.23 19.2475 275.23L17.6478 274.03ZM13.2106 366.135C20.4054 378.661 30.6645 391.277 44.0429 403.83L45.4114 402.372C32.1449 389.923 22.0214 377.459 14.9448 365.138L13.2106 366.135ZM82.3383 433.876C88.8272 438.228 95.7105 442.558 102.991 446.861L104.009 445.139C96.7587 440.855 89.9077 436.544 83.4523 432.215L82.3383 433.876Z" fill="#93F8FF"/>
</svg>
