<svg width="80" height="80" fill="none" xmlns="http://www.w3.org/2000/svg"><path fill="#fff" d="M0 0h80v80H0z"/><path d="M19.616 55.248v-3.744c0-.496.304-.88.816-.88h.144c.512 0 .816.4.816.88v7.872c0 1.92-.944 3.44-2.592 4.416a4.927 4.927 0 01-2.496.688h-.352c-1.92 0-3.44-.944-4.416-2.592a4.927 4.927 0 01-.688-2.496v-.352c0-1.92.944-3.44 2.592-4.416a4.927 4.927 0 012.496-.688h.352c1.296-.016 2.4.48 3.328 1.312zM12.608 59.2c0 1.392.672 2.432 1.888 3.088a3.253 3.253 0 001.584.416c1.36 0 2.368-.64 3.072-1.792.32-.544.48-1.12.48-1.744 0-1.2-.576-2.144-1.536-2.832a3.362 3.362 0 00-1.968-.64c-1.488 0-2.544.752-3.184 2.08-.24.448-.336.928-.336 1.424zm14.928-5.28h.24c2.048 0 3.616.992 4.592 2.784.4.72.608 1.504.608 2.32v.352c0 1.92-.944 3.44-2.608 4.416a4.927 4.927 0 01-2.496.688h-.352c-1.92 0-3.44-.944-4.416-2.592a4.927 4.927 0 01-.688-2.496v-.352c0-1.92.96-3.44 2.592-4.416a4.753 4.753 0 012.528-.704zm-3.328 5.28c0 1.344.656 2.336 1.792 3.024.528.32 1.12.48 1.744.48 1.328 0 2.304-.672 2.992-1.792.32-.528.48-1.12.48-1.744 0-1.248-.608-2.208-1.632-2.896a3.272 3.272 0 00-1.872-.576c-1.488 0-2.544.752-3.184 2.08-.224.448-.32.928-.32 1.424zm16.128-3.36c-.272-.128-.768-.16-1.056-.176-1.472-.048-2.544.784-3.184 2.08-.224.448-.32.928-.32 1.424 0 1.52.8 2.576 2.144 3.232.496.24 1.136.288 1.68.288.48 0 1.152-.288 1.568-.496l.08-.032h.352c.4.08.704.336.704.768v.176c0 1.072-1.968 1.328-2.72 1.376-2.656.176-4.64-1.28-5.392-3.808A4.677 4.677 0 0134 59.344v-.352c0-1.92.96-3.44 2.592-4.416a4.927 4.927 0 012.496-.688h.352a4.55 4.55 0 012.592.8l.064.048.048.064c.08.144.16.304.16.464v.176c0 .448-.336.688-.752.768h-.112c-.272.016-.864-.272-1.104-.368zm5.744 1.184a125.53 125.53 0 012.08-2.048c.192-.192.928-.992 1.216-.992h.352c.4.08.704.336.704.768v.176c0 .304-.352.64-.544.848-.4.432-.832.848-1.248 1.264l-2.144 2.176c.928.928 1.84 1.84 2.752 2.784.256.256.512.512.752.768.08.096.224.208.288.336a.74.74 0 01.128.4v.176l-.016.048c-.096.4-.352.736-.8.736h-.144c-.288 0-.624-.336-.832-.528-.416-.384-.816-.8-1.216-1.2l-1.36-1.328v2.128c0 .496-.304.88-.816.88h-.112c-.512 0-.816-.4-.816-.88V51.52c0-.496.304-.88.816-.88h.144c.512 0 .816.4.816.88v5.504zm22.064-3.04h.176c.528 0 .88.352.88.88 0 .736-.704.928-1.312.928-.8 0-1.552.48-2.096 1.024-.688.672-.976 1.536-.976 2.48v4.288c0 .496-.304.88-.816.88h-.144c-.512 0-.816-.4-.816-.88v-4.528c0-1.744.848-3.168 2.256-4.16a4.906 4.906 0 012.848-.912zM55.552 62.48c.64.224 1.376.192 2.032.08.336-.144 1.2-.528 1.52-.464l.048.016.048.016c.192.096.384.224.48.432.224.464.128.928-.336 1.184l-.144.08c-1.68.976-3.472.832-5.136-.064-.8-.432-1.408-1.072-1.856-1.856l-.112-.176c-1.072-1.872-.928-3.824.288-5.6.416-.608.976-1.088 1.616-1.456l.24-.144c1.584-.912 3.28-.848 4.896-.048.88.432 1.584 1.072 2.064 1.92l.08.16c.352.608-.112 1.152-.576 1.52-.544.416-1.104.928-1.632 1.392-1.168.976-2.336 2-3.52 3.008zm-1.52-1.072a742.499 742.499 0 003.936-3.392c.448-.384.944-.784 1.376-1.2-.352-.448-.944-.768-1.456-.96-1.024-.384-2.032-.256-2.96.288-1.232.704-1.744 1.84-1.696 3.232.016.56.16 1.088.464 1.552.096.176.224.336.336.48zM44.48 25.952h5.216v5.344h2.64c1.216 0 2.48-.224 3.632-.608.56-.192 1.2-.464 1.76-.8-.736-.96-1.12-2.176-1.232-3.376-.144-1.632.176-3.744 1.28-5.024l.544-.64.656.528c1.648 1.328 3.04 3.168 3.28 5.28 1.984-.576 4.304-.448 6.064.56l.72.416-.384.736c-1.472 2.88-4.576 3.776-7.584 3.616-4.528 11.264-14.368 16.592-26.304 16.592-6.16 0-11.824-2.304-15.04-7.776l-.048-.096-.464-.96c-1.088-2.416-1.456-5.04-1.2-7.68l.08-.784h4.464v-5.344h5.216V20.72h10.448v-5.216h6.256v10.448z" fill="#364548"/><path d="M61.408 27.92c.352-2.72-1.68-4.864-2.944-5.872-1.456 1.68-1.68 6.096.608 7.952-1.28 1.136-3.968 2.16-6.704 2.16H18.88c-.272 2.864.24 5.52 1.392 7.776l.384.704c.24.416.512.8.784 1.184 1.376.096 2.64.112 3.808.096 2.288-.048 4.144-.32 5.552-.816.208-.08.432.032.512.256.08.208-.032.432-.256.512a6.393 6.393 0 01-.592.176c-1.104.32-2.304.528-3.84.624.096 0-.096.016-.096.016-.048 0-.112.016-.176.016a37.04 37.04 0 01-1.92.048 55.39 55.39 0 01-2.256-.048l-.016.016c2.784 3.136 7.152 5.008 12.608 5.008 11.568 0 21.376-5.136 25.728-16.64 3.088.32 6.048-.464 7.392-3.104-2.128-1.248-4.896-.864-6.48-.064z" fill="#22A0C8"/><path d="M61.408 27.92c.352-2.72-1.68-4.864-2.944-5.872-1.456 1.68-1.68 6.096.608 7.952-1.28 1.136-3.968 2.16-6.704 2.16H20.864c-.144 4.4 1.488 7.728 4.384 9.744 2.288-.048 4.144-.32 5.552-.816.208-.08.432.032.512.256.08.208-.032.432-.256.512a6.393 6.393 0 01-.592.176c-1.104.32-2.4.56-3.936.656l-.032-.032c3.936 2.016 9.648 2.016 16.192-.496 7.344-2.816 14.16-8.192 18.928-14.336-.064.032-.144.064-.208.096z" fill="#37B1D9"/><path d="M18.944 35.648a13.277 13.277 0 001.328 4.288l.384.704c.24.416.512.8.784 1.184 1.376.096 2.64.112 3.808.096 2.288-.048 4.144-.32 5.552-.816.208-.08.432.032.512.256.08.208-.032.432-.256.512a6.393 6.393 0 01-.592.176c-1.104.32-2.4.544-3.936.64h-.192a36.59 36.59 0 01-1.92.048 56.16 56.16 0 01-2.272-.048c2.784 3.136 7.184 5.024 12.64 5.024 9.904 0 18.528-3.76 23.52-12.064h-39.36z" fill="#1B81A5"/><path d="M21.168 35.648c.592 2.704 2.016 4.816 4.08 6.256 2.288-.048 4.144-.32 5.552-.816.208-.08.432.032.512.256.08.208-.032.432-.256.512a6.393 6.393 0 01-.592.176c-1.104.32-2.432.544-3.968.64 3.936 2.016 9.632 1.984 16.176-.528 3.952-1.52 7.776-3.792 11.184-6.512H21.168" fill="#1D91B4"/><path d="M23.424 26.816h4.528v4.528h-4.528v-4.528zm.368.384h.352v3.776h-.352V27.2zm.672 0h.368v3.776h-.368V27.2zm.688 0h.368v3.776h-.368V27.2zm.688 0h.368v3.776h-.368V27.2zm.688 0h.368v3.776h-.368V27.2zm.688 0h.352v3.776h-.352V27.2zm1.424-5.6h4.528v4.528H28.64V21.6zm.384.368h.352v3.776h-.352v-3.776zm.672 0h.368v3.776h-.368v-3.776zm.688 0h.368v3.776h-.368v-3.776zm.688 0h.368v3.776h-.368v-3.776zm.672 0h.368v3.776h-.368v-3.776zm.688 0h.352v3.776h-.352v-3.776z" fill="#23A3C2"/><path d="M28.64 26.816h4.528v4.528H28.64v-4.528zm.384.384h.352v3.776h-.352V27.2zm.672 0h.368v3.776h-.368V27.2zm.688 0h.368v3.776h-.368V27.2zm.688 0h.368v3.776h-.368V27.2zm.672 0h.368v3.776h-.368V27.2zm.688 0h.352v3.776h-.352V27.2z" fill="#34BBDE"/><path d="M33.872 26.816H38.4v4.528h-4.528v-4.528zm.368.384h.352v3.776h-.352V27.2zm.672 0h.368v3.776h-.368V27.2zm.688 0h.368v3.776H35.6V27.2zm.688 0h.368v3.776h-.368V27.2zm.688 0h.368v3.776h-.368V27.2zm.688 0h.352v3.776h-.352V27.2z" fill="#23A3C2"/><path d="M33.872 21.6H38.4v4.528h-4.528V21.6zm.368.368h.352v3.776h-.352v-3.776zm.672 0h.368v3.776h-.368v-3.776zm.688 0h.368v3.776H35.6v-3.776zm.688 0h.368v3.776h-.368v-3.776zm.688 0h.368v3.776h-.368v-3.776zm.688 0h.352v3.776h-.352v-3.776zm1.424 4.848h4.528v4.528h-4.528v-4.528zm.384.384h.352v3.776h-.352V27.2zm.672 0h.368v3.776h-.368V27.2zm.688 0h.368v3.776h-.368V27.2zm.672 0h.368v3.776h-.368V27.2zm.688 0h.368v3.776h-.368V27.2zm.688 0h.352v3.776h-.352V27.2z" fill="#34BBDE"/><path d="M39.088 21.6h4.528v4.528h-4.528V21.6zm.384.368h.352v3.776h-.352v-3.776zm.672 0h.368v3.776h-.368v-3.776zm.688 0h.368v3.776h-.368v-3.776zm.672 0h.368v3.776h-.368v-3.776zm.688 0h.368v3.776h-.368v-3.776zm.688 0h.352v3.776h-.352v-3.776z" fill="#23A3C2"/><path d="M39.088 16.368h4.528v4.528h-4.528v-4.528zm.384.384h.352v3.776h-.352v-3.776zm.672 0h.368v3.776h-.368v-3.776zm.688 0h.368v3.776h-.368v-3.776zm.672 0h.368v3.776h-.368v-3.776zm.688 0h.368v3.776h-.368v-3.776zm.688 0h.352v3.776h-.352v-3.776z" fill="#34BBDE"/><path d="M44.32 26.816h4.528v4.528H44.32v-4.528zm.368.384h.352v3.776h-.352V27.2zm.672 0h.368v3.776h-.368V27.2zm.688 0h.368v3.776h-.368V27.2zm.688 0h.368v3.776h-.368V27.2zm.688 0h.368v3.776h-.368V27.2zm.688 0h.352v3.776h-.352V27.2z" fill="#23A3C2"/><path d="M32.896 38.688c.688 0 1.248.56 1.248 1.248a1.25 1.25 0 01-1.248 1.248 1.25 1.25 0 01-1.248-1.248 1.24 1.24 0 011.248-1.248z" fill="#D3ECEC"/><path d="M32.896 39.04c.112 0 .224.016.32.064a.35.35 0 00-.176.32c0 .208.16.368.368.368.144 0 .256-.08.32-.192a.836.836 0 01.064.336c0 .496-.4.896-.896.896a.895.895 0 01-.896-.896c0-.496.4-.896.896-.896zM10.8 36.096h58.096c-1.264-.32-4-.752-3.552-2.416-2.304 2.656-7.84 1.872-9.248.56-1.552 2.256-10.64 1.408-11.264-.352-1.952 2.288-8.016 2.288-9.968 0-.64 1.76-9.712 2.624-11.264.352-1.392 1.312-6.944 2.112-9.248-.56.448 1.664-2.288 2.096-3.552 2.416z" fill="#364548"/><path d="M36.208 47.68c-3.088-1.472-4.784-3.456-5.728-5.648-1.152.32-2.528.544-4.128.624a42.984 42.984 0 01-4.336-.016c2.832 2.832 6.32 5.024 12.784 5.056.464.016.944 0 1.408-.016z" fill="#BDD9D7"/><path d="M31.616 44.048a10.32 10.32 0 01-1.152-2.016c-1.152.336-2.528.544-4.128.624 1.104.608 2.688 1.168 5.28 1.392z" fill="#D3ECEC"/></svg>