<svg width="78" height="80" fill="none" xmlns="http://www.w3.org/2000/svg"><path d="M77.399 47.89c-.46-1.398-1.683-2.382-3.257-2.622-.743-.11-1.596-.066-2.601.153-1.749.371-3.06.502-4 .524 3.585-6.054 6.514-12.962 8.175-19.453 2.71-10.514 1.268-15.3-.437-17.465C70.798 3.3 64.24.218 56.349.131c-4.218-.044-7.912.787-9.835 1.377a36.712 36.712 0 00-5.749-.524c-3.803-.066-7.148.765-10.033 2.47a44.55 44.55 0 00-7.082-1.771C16.721.546 11.148 1.443 7.06 4.306 2.12 7.803-.175 13.858.262 22.339c.131 2.688 1.64 10.863 4 18.623 1.356 4.459 2.82 8.153 4.306 11.016 2.12 4.044 4.416 6.404 6.973 7.257 1.443.48 4.044.809 6.776-1.465.35.416.809.831 1.42 1.224a9.227 9.227 0 002.69 1.137c3.431.852 6.644.634 9.398-.568.022.48.022.962.044 1.355l.066 1.902c.152 4.043.437 7.213 1.245 9.399.044.13.11.306.175.502.416 1.246 1.093 3.344 2.82 4.984 1.792 1.705 3.956 2.207 5.945 2.207a13.49 13.49 0 002.776-.306c2.973-.633 6.36-1.617 8.809-5.092 2.317-3.301 3.432-8.24 3.628-16.066.022-.219.044-.437.066-.634.022-.131.022-.284.044-.415l.546.044h.131c3.039.13 6.733-.503 9.006-1.552 1.858-.831 7.628-3.891 6.273-8z" fill="#000"/><path d="M72.219 48.7c-9.006 1.857-9.64-1.203-9.64-1.203 9.509-14.12 13.487-32.044 10.055-36.415C63.279-.874 47.06 4.787 46.798 4.918l-.088.022c-1.77-.372-3.781-.59-6.01-.634-4.088-.066-7.17 1.07-9.509 2.841 0 0-28.918-11.912-27.563 14.973.285 5.727 8.197 43.3 17.64 31.934a174.46 174.46 0 016.776-7.65c1.661 1.093 3.628 1.661 5.726 1.465l.153-.131a6.822 6.822 0 00.066 1.617c-2.426 2.71-1.727 3.191-6.58 4.197-4.917 1.005-2.032 2.82-.152 3.3 2.295.569 7.585 1.377 11.147-3.628l-.153.568c.962.765 1.618 4.962 1.509 8.765-.11 3.803-.197 6.427.568 8.46.743 2.032 1.508 6.644 7.89 5.267 5.334-1.137 8.11-4.11 8.503-9.05.263-3.518.897-2.994.94-6.141l.503-1.487c.568-4.765.087-6.295 3.388-5.595l.809.065c2.426.11 5.595-.393 7.453-1.245 3.978-1.837 6.34-4.94 2.405-4.132z" fill="#336791"/><path d="M32.874 24.7c-.808-.11-1.552 0-1.923.262-.219.153-.284.35-.284.459-.044.328.196.7.328.896.415.546 1.005.918 1.595.983.088.022.175.022.262.022.984 0 1.88-.765 1.946-1.333.11-.678-.918-1.159-1.924-1.29zm26.908.021c-.088-.546-1.071-.721-2.011-.59-.94.131-1.837.547-1.77 1.115.065.437.83 1.18 1.77 1.18.087 0 .153 0 .24-.022.612-.087 1.071-.48 1.29-.7.328-.349.502-.72.48-.983z" fill="#fff"/><path d="M75.213 48.48c-.35-1.048-1.442-1.376-3.279-.983-5.464 1.137-7.41.35-8.043-.131 4.24-6.47 7.737-14.273 9.617-21.552.896-3.454 1.377-6.667 1.421-9.268.044-2.863-.437-4.983-1.443-6.251-4.065-5.18-10.01-7.978-17.246-8.044-4.961-.065-9.158 1.224-9.967 1.574a26.074 26.074 0 00-5.595-.721c-3.716-.066-6.951.83-9.618 2.644-1.158-.437-4.153-1.464-7.803-2.054-6.317-1.028-11.344-.24-14.93 2.295-4.305 3.016-6.272 8.437-5.9 16.087.13 2.58 1.595 10.492 3.912 18.099 3.038 9.989 6.36 15.65 9.858 16.808.415.132.874.24 1.399.24 1.267 0 2.841-.567 4.459-2.513 2.688-3.235 5.202-5.967 6.142-6.95a9.868 9.868 0 004.415 1.18v.13c-.306.373-.568.678-.787.963-1.07 1.355-1.29 1.639-4.721 2.338-.984.197-3.563.744-3.607 2.558-.043 1.989 3.06 2.82 3.432 2.907a14.76 14.76 0 003.563.459c2.754 0 5.18-.896 7.125-2.667-.065 7.082.24 14.077 1.093 16.197.7 1.749 2.405 5.989 7.782 5.989.787 0 1.661-.087 2.623-.306 5.617-1.202 8.043-3.694 8.983-9.158.503-2.93 1.377-9.902 1.77-13.64.853.262 1.968.394 3.17.394 2.492 0 5.377-.525 7.17-1.377 2.01-.918 5.66-3.235 5.005-5.246zM61.836 23.192c-.022 1.115-.175 2.098-.328 3.148-.175 1.136-.35 2.295-.393 3.694-.044 1.377.13 2.797.284 4.196.328 2.798.678 5.662-.656 8.503-.197-.371-.415-.765-.59-1.224-.175-.393-.525-1.05-1.027-1.945-1.946-3.476-6.47-11.629-4.153-14.951.7-.94 2.47-1.967 6.863-1.42zm-5.333-18.71c6.47.153 11.584 2.557 15.191 7.191 2.776 3.54-.284 19.694-9.137 33.617l-.262-.327c-.044-.044-.066-.088-.11-.132 2.296-3.781 1.837-7.519 1.443-10.82-.153-1.354-.327-2.644-.284-3.846.044-1.29.219-2.383.372-3.432.197-1.311.415-2.667.35-4.262a1.71 1.71 0 00.043-.59c-.153-1.53-1.88-6.099-5.442-10.252C56.72 9.355 53.88 6.82 50.01 5.115a27 27 0 016.492-.634zM20.328 53.268c-1.793 2.142-3.017 1.726-3.432 1.595-2.645-.874-5.705-6.47-8.415-15.344-2.339-7.672-3.716-15.388-3.825-17.552-.35-6.841 1.311-11.606 4.94-14.164 5.88-4.175 15.54-1.683 19.431-.415-.065.065-.109.11-.175.153-6.382 6.448-6.229 17.442-6.207 18.098 0 .262.022.634.044 1.137.109 1.858.305 5.29-.24 9.202-.504 3.628.611 7.17 3.06 9.727.261.262.524.524.786.743-1.07 1.18-3.432 3.781-5.967 6.82zm6.82-9.093c-1.968-2.055-2.886-4.94-2.47-7.87.568-4.108.371-7.715.24-9.639-.022-.262-.022-.502-.044-.699.94-.83 5.246-3.147 8.328-2.426 1.4.328 2.252 1.268 2.623 2.929 1.836 8.524.24 12.065-1.049 14.907-.262.59-.525 1.136-.721 1.727l-.175.437c-.416 1.115-.809 2.164-1.05 3.17-2.098-.023-4.13-.919-5.682-2.536zm.306 11.475a5.038 5.038 0 01-1.487-.634c.263-.13.743-.306 1.596-.48 4.044-.831 4.656-1.421 6.033-3.148.306-.394.677-.853 1.158-1.4.721-.808 1.071-.677 1.661-.436.481.197.962.809 1.159 1.486.087.328.197.918-.153 1.399-2.842 4.022-6.973 3.956-9.967 3.213zm21.158 19.694c-4.94 1.05-6.689-1.464-7.847-4.35-.743-1.858-1.115-10.251-.852-19.519 0-.13-.022-.24-.044-.35a3.486 3.486 0 00-.131-.655c-.394-1.355-1.334-2.47-2.448-2.951-.46-.175-1.268-.525-2.252-.284.219-.874.569-1.858.984-2.907l.175-.438a22.81 22.81 0 01.677-1.573c1.334-2.995 3.192-7.082 1.18-16.306-.742-3.454-3.234-5.137-7.038-4.765-2.273.24-4.35 1.158-5.377 1.683-.218.11-.437.218-.612.328.284-3.476 1.377-9.99 5.465-14.12 2.513-2.602 5.945-3.891 10.12-3.826 8.219.131 13.486 4.35 16.48 7.87 2.558 3.037 3.957 6.076 4.504 7.737-4.175-.415-6.995.393-8.438 2.448-3.125 4.459 1.705 13.137 4.044 17.311.416.766.787 1.421.918 1.705.765 1.836 1.727 3.06 2.448 3.957.219.284.438.546.59.765-1.267.371-3.519 1.202-3.322 5.399-.175 2.098-1.355 11.978-1.945 15.475-.809 4.612-2.514 6.339-7.279 7.366zm20.634-23.628c-1.29.59-3.454 1.049-5.508 1.136-2.273.11-3.41-.262-3.694-.48-.131-2.623.852-2.886 1.88-3.192.153-.044.327-.087.48-.153.088.088.197.153.306.219 1.815 1.202 5.071 1.333 9.662.393h.043c-.612.612-1.66 1.377-3.17 2.077z" fill="#fff"/></svg>