<svg width="64" height="80" viewBox="0 0 64 80" fill="none" xmlns="http://www.w3.org/2000/svg">
<path d="M43.6909 12.1584C46.7011 8.93578 48.7372 4.46158 48.1799 0C43.8432 0.154765 38.5872 2.54567 35.4743 5.76803C32.6839 8.62076 30.2408 13.18 30.8928 17.5541C35.732 17.8814 40.6757 15.3758 43.6909 12.1584ZM52.9266 42.9702C52.8341 32.9678 60.8457 28.1637 61.2005 27.9316C56.6964 21.1392 49.6817 20.2098 47.1835 20.105C41.2105 19.4779 35.5372 23.7222 32.5047 23.7222C29.4846 23.7222 24.8131 20.1873 19.8592 20.2822C13.3467 20.3895 7.34597 24.1818 4.00123 30.1922C-2.764 42.2833 2.26725 60.1947 8.8596 70.0023C12.0822 74.8036 15.9193 80.1896 20.9579 79.9948C25.8218 79.8 27.6554 76.7598 33.5236 76.7598C39.3942 76.7598 41.0379 79.9948 46.174 79.8974C51.4001 79.8 54.7075 75.0036 57.9027 70.1872C61.5998 64.6189 63.1238 59.228 63.2111 58.9557C63.0988 58.8907 53.0339 54.9313 52.9266 42.9702Z" fill="#CCD0D2"/>
</svg>
