<svg width="80" height="80" viewBox="0 0 80 80" fill="none" xmlns="http://www.w3.org/2000/svg">
<g clip-path="url(#clip0)">
<path d="M77.0666 25.0022H40.0015C31.7176 24.994 24.9956 31.7028 24.9873 39.9867C24.9848 42.5597 25.6442 45.09 26.9021 47.3345L8.36963 15.5359C21.8679 -1.93443 46.9731 -5.15429 64.4434 8.34401C70.0539 12.679 74.4106 18.4282 77.0666 25.0022Z" fill="#F44336"/>
<path d="M79.9997 40.0015C79.9813 62.0843 62.0843 79.9813 40.0015 79.9998C38.3291 80.006 36.6584 79.8946 35.0017 79.6665L53.0009 47.5012C57.1262 40.3197 54.6671 31.1543 47.5012 27.0021C45.2323 25.6886 42.6564 24.9985 40.0348 25.0022H77.0664C79.0129 29.7629 80.0094 34.8583 79.9997 40.0015Z" fill="#FFC107"/>
<path d="M53.0009 47.5011L35.0017 79.6664H34.9684C13.065 76.899 -2.44769 56.8993 0.319688 34.9959C1.21543 27.9064 3.99515 21.1865 8.36964 15.5358L26.9021 47.3344L27.0021 47.5011C31.1349 54.6805 40.3051 57.1502 47.4844 53.0176C49.7778 51.6975 51.681 49.7943 53.0009 47.5011Z" fill="#4CAF50"/>
<path d="M53.0009 47.5012C48.8681 54.6805 39.6979 57.1503 32.5185 53.0176C30.2253 51.6975 28.3221 49.7943 27.002 47.5012L26.902 47.3345C22.8521 40.1081 25.4273 30.9668 32.6537 26.9168C34.8983 25.6589 37.4286 24.9995 40.0015 25.002H40.0347C42.6563 24.9983 45.2323 25.6884 47.5011 27.0019C54.6672 31.1543 57.1262 40.3196 53.0009 47.5012Z" fill="#F44336"/>
<path d="M53.0009 47.5012C48.8681 54.6805 39.6979 57.1503 32.5185 53.0176C30.2253 51.6975 28.3221 49.7943 27.002 47.5012L26.902 47.3345C22.8521 40.1081 25.4273 30.9668 32.6537 26.9168C34.8983 25.6589 37.4286 24.9995 40.0015 25.002H40.0347C42.6563 24.9983 45.2323 25.6884 47.5011 27.0019C54.6672 31.1543 57.1262 40.3196 53.0009 47.5012Z" fill="#2196F3"/>
<path d="M39.9449 56.6674C37.0391 56.6671 34.1845 55.9014 31.6685 54.4475C29.1316 52.9802 27.0247 50.8722 25.5588 48.3345C20.9567 40.3633 23.6878 30.1706 31.659 25.5685C34.1953 24.1042 37.0728 23.3341 40.0016 23.3356C49.2059 23.3285 56.6734 30.7844 56.6804 39.9886C56.6827 42.9185 55.9125 45.7971 54.4475 48.3345C51.4439 53.4983 45.9187 56.673 39.9449 56.6674ZM40.0314 26.6688C35.2484 26.6433 30.8201 29.189 28.4352 33.3352C24.7535 39.7193 26.9442 47.8794 33.3283 51.5611C39.7124 55.2428 47.8725 53.0521 51.5542 46.668C55.2359 40.2911 53.051 32.137 46.6741 28.4551C44.6551 27.2895 42.3659 26.6736 40.0347 26.6689H40.0314V26.6688Z" fill="#FAFAFA"/>
</g>
<defs>
<clipPath id="clip0">
<rect width="80" height="80" fill="white"/>
</clipPath>
</defs>
</svg>
