<svg width="80" height="80" viewBox="0 0 80 80" fill="none" xmlns="http://www.w3.org/2000/svg">
<path d="M61.9843 50.7812L42.0624 15.3906C41.6404 14.6873 40.8436 14.3126 39.9999 14.3126C39.1561 14.3126 38.3594 14.6875 37.9374 15.3906L18.0155 50.7812C17.6404 51.5314 17.6404 52.422 18.0624 53.125C18.4841 53.8751 19.2343 54.2969 20.078 54.2969H59.9218C60.7655 54.2969 61.5157 53.8751 61.9374 53.125C62.3594 52.422 62.3594 51.5314 61.9843 50.7812Z" fill="#CAE8F9"/>
<path d="M61.9375 53.125C61.5158 53.8751 60.7656 54.2969 59.9219 54.2969H40V14.3126C40.8437 14.3126 41.6405 14.6875 42.0625 15.3906L61.9844 50.7812C62.3595 51.5314 62.3595 52.422 61.9375 53.125Z" fill="#B7E0F6"/>
<path d="M11.8392 11.8392C4.62453 19.0539 0 29.0149 0 40L2.40156 42.3438H12.2634L14.2188 40C14.2188 32.892 17.1102 26.4467 21.7784 21.7785L21.3339 18.9902L15.6931 13.3494L11.8392 11.8392Z" fill="#1689FC"/>
<path d="M14.2188 40H0C0 50.9852 4.62453 60.9461 11.8392 68.1608L16.0742 66.2695L21.0644 62.2169L21.7784 58.2216C17.1102 53.5533 14.2188 47.108 14.2188 40Z" fill="#1DE8F1"/>
<path d="M21.7783 58.2216L11.8391 68.1608C19.0538 75.3755 29.0147 80 39.9999 80L42.3436 77.4605V68.2226L39.9999 65.7812C32.8919 65.7812 26.4466 62.8898 21.7783 58.2216Z" fill="#32D736"/>
<path d="M58.2216 58.2216C53.5533 62.8898 47.108 65.7812 40 65.7812V80C50.9852 80 60.9461 75.3755 68.1608 68.1608L66.6728 64.3291L62.1748 59.8311L58.2216 58.2216Z" fill="#FEDB41"/>
<path d="M65.7811 40C65.7811 47.108 62.8897 53.5533 58.2214 58.2216L68.1607 68.1608C75.3754 60.9461 79.9999 50.9852 79.9999 40L77.9513 37.6562H68.4213L65.7811 40Z" fill="#FCBF29"/>
<path d="M68.1609 11.8392L64.1699 13.4864L57.7246 19.9317L58.2216 21.7785C62.8899 26.4467 65.7813 32.892 65.7813 40H80.0001C80.0001 29.0149 75.3755 19.0539 68.1609 11.8392Z" fill="#FE9923"/>
<path d="M40 0L37.6562 1.55859V12.168L40 14.2188C47.108 14.2188 53.5533 17.1102 58.2216 21.7784L68.1608 11.8392C60.9461 4.62453 50.9852 0 40 0Z" fill="#FD3018"/>
<path d="M11.8391 11.8392L21.7783 21.7784C26.4466 17.1102 32.8919 14.2188 39.9999 14.2188V0C29.0147 0 19.0538 4.62453 11.8391 11.8392Z" fill="#B758CE"/>
</svg>
