<svg width="68" height="80" viewBox="0 0 68 80" fill="none" xmlns="http://www.w3.org/2000/svg">
<path d="M5.67339 26.6792C2.91263 26.6792 0.674561 28.9173 0.674561 31.678V55.0059C0.674561 57.7666 2.91263 60.0047 5.67339 60.0047C8.43415 60.0047 10.6722 57.7666 10.6722 55.0059V31.678C10.6722 28.9173 8.43415 26.6792 5.67339 26.6792Z" fill="#4CAF50"/>
<path d="M62.3267 26.6792C59.566 26.6792 57.3279 28.9173 57.3279 31.678V55.0059C57.3279 57.7666 59.566 60.0047 62.3267 60.0047C65.0875 60.0047 67.3255 57.7666 67.3255 55.0059V31.678C67.3255 28.9173 65.0876 26.6792 62.3267 26.6792Z" fill="#4CAF50"/>
<path d="M52.3291 26.6792H15.6711C14.7508 26.6792 14.0048 27.4253 14.0048 28.3455V55.0058C14.004 58.9655 16.7902 62.3786 20.6699 63.1706V75.0012C20.6699 77.7619 22.908 80 25.6687 80C28.4295 80 30.6676 77.7619 30.6676 75.0012V63.3372H37.3327V75.0012C37.3327 77.7619 39.5708 80 42.3316 80C45.0923 80 47.3304 77.7619 47.3304 75.0012V63.1706C51.2101 62.3786 53.9963 58.9655 53.9955 55.0058V28.3455C53.9954 27.4253 53.2493 26.6792 52.3291 26.6792Z" fill="#4CAF50"/>
<path d="M46.1139 6.92385L50.1763 2.8648C50.8381 2.22541 50.8564 1.17066 50.2172 0.50863C49.5778 -0.153247 48.5231 -0.171524 47.861 0.467702C47.8471 0.481136 47.8335 0.494727 47.8201 0.50863L43.0879 5.24096C37.2921 2.72327 30.7113 2.72327 24.9155 5.24096L20.1833 0.505349C19.5214 -0.134032 18.4665 -0.115599 17.8271 0.546277C17.2035 1.19206 17.2035 2.21573 17.8271 2.86136L21.8862 6.92369C16.9378 10.1979 13.9741 15.7468 14.0048 21.6802C14.0048 22.6005 14.7508 23.3466 15.6711 23.3466H52.3292C53.2495 23.3466 53.9955 22.6005 53.9955 21.6802C54.026 15.7469 51.0623 10.1981 46.1139 6.92385Z" fill="#4CAF50"/>
</svg>
