<svg width="63" height="80" viewBox="0 0 63 80" fill="none" xmlns="http://www.w3.org/2000/svg">
<path d="M28.195 0H41.2632V59.9142C34.5731 61.1774 29.6297 61.6764 24.2963 61.6764C8.32752 61.6608 0.015625 54.5185 0.015625 40.8265C0.015625 27.6335 8.82654 19.0565 22.4874 19.0565C24.6082 19.0565 26.2301 19.2281 28.1794 19.7271V0H28.195ZM28.6628 30.5341C27.1345 30.0351 25.8714 29.8635 24.2495 29.8635C17.6375 29.8635 13.8168 33.9025 13.8168 40.9669C13.8168 47.8441 17.4659 51.6491 24.1716 51.6491C25.6219 51.6491 26.7915 51.5711 28.6628 51.3216V30.5341Z" fill="#2BA977"/>
<path d="M62.659 20.6783V50.6822C62.659 61.0214 61.8792 65.9805 59.618 70.269C57.4972 74.3859 54.7058 76.9902 48.9358 79.8596L36.8032 74.1364C42.5732 71.4542 45.3646 69.0838 47.158 65.4659C49.0293 61.77 49.6219 57.4815 49.6219 46.2222V20.6783H62.659Z" fill="#2BA977"/>
<path d="M61.349 0H48.2808V13.2865H61.349V0Z" fill="#2BA977"/>
</svg>
