<svg width="80" height="80" viewBox="0 0 80 80" fill="none" xmlns="http://www.w3.org/2000/svg">
<rect width="80" height="80" fill="white"/>
<path d="M19.6161 55.248V51.504C19.6161 51.008 19.9201 50.624 20.4321 50.624H20.5761C21.0881 50.624 21.3921 51.024 21.3921 51.504V59.376C21.3921 61.296 20.4481 62.816 18.8001 63.792C18.0321 64.24 17.1841 64.48 16.3041 64.48H15.9521C14.0321 64.48 12.5121 63.536 11.5361 61.888C11.0881 61.12 10.8481 60.272 10.8481 59.392V59.04C10.8481 57.12 11.7921 55.6 13.4401 54.624C14.2081 54.176 15.0561 53.936 15.9361 53.936H16.2881C17.5841 53.92 18.6881 54.416 19.6161 55.248ZM12.6081 59.2C12.6081 60.592 13.2801 61.632 14.4961 62.288C14.9921 62.56 15.5201 62.704 16.0801 62.704C17.4401 62.704 18.4481 62.064 19.1521 60.912C19.4721 60.368 19.6321 59.792 19.6321 59.168C19.6321 57.968 19.0561 57.024 18.0961 56.336C17.5041 55.92 16.8481 55.696 16.1281 55.696C14.6401 55.696 13.5841 56.448 12.9441 57.776C12.7041 58.224 12.6081 58.704 12.6081 59.2ZM27.5361 53.92H27.7761C29.8241 53.92 31.3921 54.912 32.3681 56.704C32.7681 57.424 32.9761 58.208 32.9761 59.024V59.376C32.9761 61.296 32.0321 62.816 30.3681 63.792C29.6001 64.24 28.7521 64.48 27.8721 64.48H27.5201C25.6001 64.48 24.0801 63.536 23.1041 61.888C22.6561 61.12 22.4161 60.272 22.4161 59.392V59.04C22.4161 57.12 23.3761 55.6 25.0081 54.624C25.7921 54.144 26.6401 53.92 27.5361 53.92ZM24.2081 59.2C24.2081 60.544 24.8641 61.536 26.0001 62.224C26.5281 62.544 27.1201 62.704 27.7441 62.704C29.0721 62.704 30.0481 62.032 30.7361 60.912C31.0561 60.384 31.2161 59.792 31.2161 59.168C31.2161 57.92 30.6081 56.96 29.5841 56.272C29.0241 55.888 28.3841 55.696 27.7121 55.696C26.2241 55.696 25.1681 56.448 24.5281 57.776C24.3041 58.224 24.2081 58.704 24.2081 59.2ZM40.3361 55.84C40.0641 55.712 39.5681 55.68 39.2801 55.664C37.8081 55.616 36.7361 56.448 36.0961 57.744C35.8721 58.192 35.7761 58.672 35.7761 59.168C35.7761 60.688 36.5761 61.744 37.9201 62.4C38.4161 62.64 39.0561 62.688 39.6001 62.688C40.0801 62.688 40.7521 62.4 41.1681 62.192L41.2481 62.16H41.5681H41.6001C42.0001 62.24 42.3041 62.496 42.3041 62.928V63.104C42.3041 64.176 40.3361 64.432 39.5841 64.48C36.9281 64.656 34.9441 63.2 34.1921 60.672C34.0641 60.24 34.0001 59.792 34.0001 59.344V58.992C34.0001 57.072 34.9601 55.552 36.5921 54.576C37.3601 54.128 38.2081 53.888 39.0881 53.888H39.4401C40.3841 53.888 41.2481 54.16 42.0321 54.688L42.0961 54.736L42.1441 54.8C42.2241 54.944 42.3041 55.104 42.3041 55.264V55.44C42.3041 55.888 41.9681 56.128 41.5521 56.208H41.5201H41.4401C41.1681 56.224 40.5761 55.936 40.3361 55.84ZM46.0801 57.024C46.7681 56.336 47.4561 55.648 48.1601 54.976C48.3521 54.784 49.0881 53.984 49.3761 53.984H49.6961H49.7281C50.1281 54.064 50.4321 54.32 50.4321 54.752V54.928C50.4321 55.232 50.0801 55.568 49.8881 55.776C49.4881 56.208 49.0561 56.624 48.6401 57.04L46.4961 59.216C47.4241 60.144 48.3361 61.056 49.2481 62C49.5041 62.256 49.7601 62.512 50.0001 62.768C50.0801 62.864 50.2241 62.976 50.2881 63.104C50.3681 63.232 50.4161 63.36 50.4161 63.504V63.68L50.4001 63.728C50.3041 64.128 50.0481 64.464 49.6001 64.464H49.4561C49.1681 64.464 48.8321 64.128 48.6241 63.936C48.2081 63.552 47.8081 63.136 47.4081 62.736L46.0481 61.408V63.536C46.0481 64.032 45.7441 64.416 45.2321 64.416H45.1201C44.6081 64.416 44.3041 64.016 44.3041 63.536V51.52C44.3041 51.024 44.6081 50.64 45.1201 50.64H45.2641C45.7761 50.64 46.0801 51.04 46.0801 51.52V57.024ZM68.1441 53.984H68.3201C68.8481 53.984 69.2001 54.336 69.2001 54.864C69.2001 55.6 68.4961 55.792 67.8881 55.792C67.0881 55.792 66.3361 56.272 65.7921 56.816C65.1041 57.488 64.8161 58.352 64.8161 59.296V63.584C64.8161 64.08 64.5121 64.464 64.0001 64.464H63.8561C63.3441 64.464 63.0401 64.064 63.0401 63.584V59.056C63.0401 57.312 63.8881 55.888 65.2961 54.896C66.1441 54.304 67.1041 53.984 68.1441 53.984ZM55.5521 62.48C56.1921 62.704 56.9281 62.672 57.5841 62.56C57.9201 62.416 58.7841 62.032 59.1041 62.096L59.1521 62.112L59.2001 62.128C59.3921 62.224 59.5841 62.352 59.6801 62.56C59.9041 63.024 59.8081 63.488 59.3441 63.744L59.2001 63.824C57.5201 64.8 55.7281 64.656 54.0641 63.76C53.2641 63.328 52.6561 62.688 52.2081 61.904L52.0961 61.728C51.0241 59.856 51.1681 57.904 52.3841 56.128C52.8001 55.52 53.3601 55.04 54.0001 54.672L54.2401 54.528C55.8241 53.616 57.5201 53.68 59.1361 54.48C60.0161 54.912 60.7201 55.552 61.2001 56.4L61.2801 56.56C61.6321 57.168 61.1681 57.712 60.7041 58.08C60.1601 58.496 59.6001 59.008 59.0721 59.472C57.9041 60.448 56.7361 61.472 55.5521 62.48ZM54.0321 61.408C55.3441 60.288 56.6561 59.152 57.9681 58.016C58.4161 57.632 58.9121 57.232 59.3441 56.816C58.9921 56.368 58.4001 56.048 57.8881 55.856C56.8641 55.472 55.8561 55.6 54.9281 56.144C53.6961 56.848 53.1841 57.984 53.2321 59.376C53.2481 59.936 53.3921 60.464 53.6961 60.928C53.7921 61.104 53.9201 61.264 54.0321 61.408Z" fill="#364548"/>
<path d="M44.4799 25.9519H49.6959V31.2959H52.3359C53.5519 31.2959 54.8159 31.0719 55.9679 30.6879C56.5279 30.4959 57.1679 30.2239 57.7279 29.8879C56.9919 28.9279 56.6079 27.7119 56.4959 26.5119C56.3519 24.8799 56.6719 22.7679 57.7759 21.4879L58.3199 20.8479L58.9759 21.3759C60.6239 22.7039 62.0159 24.5439 62.2559 26.6559C64.2399 26.0799 66.5599 26.2079 68.3199 27.2159L69.0399 27.6319L68.6559 28.3679C67.1839 31.2479 64.0799 32.1439 61.0719 31.9839C56.5439 43.2479 46.7039 48.5759 34.7679 48.5759C28.6079 48.5759 22.9439 46.2719 19.7279 40.7999L19.6799 40.7039L19.2159 39.7439C18.1279 37.3279 17.7599 34.7039 18.0159 32.0639L18.0959 31.2799H22.5599V25.9359H27.7759V20.7199H38.2239V15.5039H44.4799V25.9519Z" fill="#364548"/>
<path d="M61.4081 27.9199C61.7601 25.1999 59.7281 23.0559 58.4641 22.0479C57.0081 23.7279 56.7841 28.1439 59.0721 29.9999C57.7921 31.1359 55.1041 32.1599 52.3681 32.1599H18.8801C18.6081 35.0239 19.1201 37.6799 20.2721 39.9359L20.6561 40.6399C20.8961 41.0559 21.1681 41.4399 21.4401 41.8239C22.8161 41.9199 24.0801 41.9359 25.2481 41.9199C27.5361 41.8719 29.3921 41.5999 30.8001 41.1039C31.0081 41.0239 31.2321 41.1359 31.3121 41.3599C31.3921 41.5679 31.2801 41.7919 31.0561 41.8719C30.8641 41.9359 30.6721 41.9999 30.4641 42.0479C29.3601 42.3679 28.1601 42.5759 26.6241 42.6719C26.7201 42.6719 26.5281 42.6879 26.5281 42.6879C26.4801 42.6879 26.4161 42.7039 26.3521 42.7039C25.7441 42.7359 25.0881 42.7519 24.4321 42.7519C23.6961 42.7519 22.9761 42.7359 22.1761 42.7039L22.1601 42.7199C24.9441 45.8559 29.3121 47.7279 34.7681 47.7279C46.3361 47.7279 56.1441 42.5919 60.4961 31.0879C63.5841 31.4079 66.5441 30.6239 67.8881 27.9839C65.7601 26.7359 62.9921 27.1199 61.4081 27.9199Z" fill="#22A0C8"/>
<path d="M61.408 27.9199C61.76 25.1999 59.728 23.0559 58.464 22.0479C57.008 23.7279 56.784 28.1439 59.072 29.9999C57.792 31.1359 55.104 32.1599 52.368 32.1599H20.864C20.72 36.5599 22.352 39.8879 25.248 41.9039C27.536 41.8559 29.392 41.5839 30.8 41.0879C31.008 41.0079 31.232 41.1199 31.312 41.3439C31.392 41.5519 31.28 41.7759 31.056 41.8559C30.864 41.9199 30.672 41.9839 30.464 42.0319C29.36 42.3519 28.064 42.5919 26.528 42.6879L26.496 42.6559C30.432 44.6719 36.144 44.6719 42.688 42.1599C50.032 39.3439 56.848 33.9679 61.616 27.8239C61.552 27.8559 61.472 27.8879 61.408 27.9199Z" fill="#37B1D9"/>
<path d="M18.9441 35.6479C19.1521 37.1839 19.6001 38.6239 20.2721 39.9359L20.6561 40.6399C20.8961 41.0559 21.1681 41.4399 21.4401 41.8239C22.8161 41.9199 24.0801 41.9359 25.2481 41.9199C27.5361 41.8719 29.3921 41.5999 30.8001 41.1039C31.0081 41.0239 31.2321 41.1359 31.3121 41.3599C31.3921 41.5679 31.2801 41.7919 31.0561 41.8719C30.8641 41.9359 30.6721 41.9999 30.4641 42.0479C29.3601 42.3679 28.0641 42.5919 26.5281 42.6879C26.4801 42.6879 26.3841 42.6879 26.3361 42.6879C25.7281 42.7199 25.0881 42.7359 24.4161 42.7359C23.6801 42.7359 22.9441 42.7199 22.1441 42.6879C24.9281 45.8239 29.3281 47.7119 34.7841 47.7119C44.6881 47.7119 53.3121 43.9519 58.3041 35.6479H18.9441Z" fill="#1B81A5"/>
<path d="M21.168 35.6478C21.76 38.3518 23.184 40.4638 25.248 41.9038C27.536 41.8558 29.392 41.5838 30.8 41.0878C31.008 41.0078 31.232 41.1198 31.312 41.3438C31.392 41.5518 31.28 41.7758 31.056 41.8558C30.864 41.9198 30.672 41.9838 30.464 42.0318C29.36 42.3518 28.032 42.5758 26.496 42.6718C30.432 44.6878 36.128 44.6558 42.672 42.1438C46.624 40.6238 50.448 38.3518 53.856 35.6318H21.168" fill="#1D91B4"/>
<path d="M23.4241 26.8159H27.9521V31.3439H23.4241V26.8159ZM23.7921 27.1999H24.1441V30.9759H23.7921V27.1999ZM24.4641 27.1999H24.8321V30.9759H24.4641V27.1999ZM25.1521 27.1999H25.5201V30.9759H25.1521V27.1999ZM25.8401 27.1999H26.2081V30.9759H25.8401V27.1999ZM26.5281 27.1999H26.8961V30.9759H26.5281V27.1999ZM27.2161 27.1999H27.5681V30.9759H27.2161V27.1999Z" fill="#23A3C2"/>
<path d="M28.6401 21.5999H33.1681V26.1279H28.6401V21.5999ZM29.0241 21.9679H29.3761V25.7439H29.0241V21.9679ZM29.6961 21.9679H30.0641V25.7439H29.6961V21.9679ZM30.3841 21.9679H30.7521V25.7439H30.3841V21.9679ZM31.0721 21.9679H31.4401V25.7439H31.0721V21.9679ZM31.7441 21.9679H32.1121V25.7439H31.7441V21.9679ZM32.4321 21.9679H32.7841V25.7439H32.4321V21.9679Z" fill="#23A3C2"/>
<path d="M28.6401 26.8159H33.1681V31.3439H28.6401V26.8159ZM29.0241 27.1999H29.3761V30.9759H29.0241V27.1999ZM29.6961 27.1999H30.0641V30.9759H29.6961V27.1999ZM30.3841 27.1999H30.7521V30.9759H30.3841V27.1999ZM31.0721 27.1999H31.4401V30.9759H31.0721V27.1999ZM31.7441 27.1999H32.1121V30.9759H31.7441V27.1999ZM32.4321 27.1999H32.7841V30.9759H32.4321V27.1999Z" fill="#34BBDE"/>
<path d="M33.8721 26.8159H38.4001V31.3439H33.8721V26.8159ZM34.2401 27.1999H34.5921V30.9759H34.2401V27.1999ZM34.9121 27.1999H35.2801V30.9759H34.9121V27.1999ZM35.6001 27.1999H35.9681V30.9759H35.6001V27.1999ZM36.2881 27.1999H36.6561V30.9759H36.2881V27.1999ZM36.9761 27.1999H37.3441V30.9759H36.9761V27.1999ZM37.6641 27.1999H38.0161V30.9759H37.6641V27.1999Z" fill="#23A3C2"/>
<path d="M33.8721 21.5999H38.4001V26.1279H33.8721V21.5999ZM34.2401 21.9679H34.5921V25.7439H34.2401V21.9679ZM34.9121 21.9679H35.2801V25.7439H34.9121V21.9679ZM35.6001 21.9679H35.9681V25.7439H35.6001V21.9679ZM36.2881 21.9679H36.6561V25.7439H36.2881V21.9679ZM36.9761 21.9679H37.3441V25.7439H36.9761V21.9679ZM37.6641 21.9679H38.0161V25.7439H37.6641V21.9679Z" fill="#34BBDE"/>
<path d="M39.0881 26.8159H43.6161V31.3439H39.0881V26.8159ZM39.4721 27.1999H39.8241V30.9759H39.4721V27.1999ZM40.1441 27.1999H40.5121V30.9759H40.1441V27.1999ZM40.8321 27.1999H41.2001V30.9759H40.8321V27.1999ZM41.5041 27.1999H41.8721V30.9759H41.5041V27.1999ZM42.1921 27.1999H42.5601V30.9759H42.1921V27.1999ZM42.8801 27.1999H43.2321V30.9759H42.8801V27.1999Z" fill="#34BBDE"/>
<path d="M39.0881 21.5999H43.6161V26.1279H39.0881V21.5999ZM39.4721 21.9679H39.8241V25.7439H39.4721V21.9679ZM40.1441 21.9679H40.5121V25.7439H40.1441V21.9679ZM40.8321 21.9679H41.2001V25.7439H40.8321V21.9679ZM41.5041 21.9679H41.8721V25.7439H41.5041V21.9679ZM42.1921 21.9679H42.5601V25.7439H42.1921V21.9679ZM42.8801 21.9679H43.2321V25.7439H42.8801V21.9679Z" fill="#23A3C2"/>
<path d="M39.0881 16.3679H43.6161V20.8959H39.0881V16.3679ZM39.4721 16.7519H39.8241V20.5279H39.4721V16.7519ZM40.1441 16.7519H40.5121V20.5279H40.1441V16.7519ZM40.8321 16.7519H41.2001V20.5279H40.8321V16.7519ZM41.5041 16.7519H41.8721V20.5279H41.5041V16.7519ZM42.1921 16.7519H42.5601V20.5279H42.1921V16.7519ZM42.8801 16.7519H43.2321V20.5279H42.8801V16.7519Z" fill="#34BBDE"/>
<path d="M44.3201 26.8159H48.8481V31.3439H44.3201V26.8159ZM44.6881 27.1999H45.0401V30.9759H44.6881V27.1999ZM45.3601 27.1999H45.7281V30.9759H45.3601V27.1999ZM46.0481 27.1999H46.4161V30.9759H46.0481V27.1999ZM46.7361 27.1999H47.1041V30.9759H46.7361V27.1999ZM47.4241 27.1999H47.7921V30.9759H47.4241V27.1999ZM48.1121 27.1999H48.4641V30.9759H48.1121V27.1999Z" fill="#23A3C2"/>
<path d="M32.896 38.688C33.584 38.688 34.1439 39.248 34.1439 39.936C34.1439 40.624 33.584 41.184 32.896 41.184C32.208 41.184 31.6479 40.624 31.6479 39.936C31.6479 39.248 32.192 38.688 32.896 38.688Z" fill="#D3ECEC"/>
<path d="M32.896 39.04C33.008 39.04 33.12 39.056 33.216 39.104C33.104 39.168 33.04 39.28 33.04 39.424C33.04 39.632 33.2 39.792 33.408 39.792C33.552 39.792 33.664 39.712 33.728 39.6C33.776 39.712 33.792 39.824 33.792 39.936C33.792 40.432 33.392 40.832 32.896 40.832C32.4 40.832 32 40.432 32 39.936C32 39.44 32.4 39.04 32.896 39.04Z" fill="#364548"/>
<path d="M10.8 36.0959H68.8961C67.6321 35.7759 64.8961 35.3439 65.3441 33.6799C63.0401 36.3359 57.5041 35.5519 56.0961 34.2399C54.5441 36.4959 45.4561 35.6479 44.8321 33.8879C42.8801 36.1759 36.816 36.1759 34.864 33.8879C34.224 35.6479 25.1521 36.5119 23.6 34.2399C22.208 35.5519 16.656 36.3519 14.352 33.6799C14.8 35.3439 12.064 35.7759 10.8 36.0959Z" fill="#364548"/>
<path d="M36.2081 47.68C33.1201 46.208 31.4241 44.224 30.4801 42.032C29.3281 42.352 27.9521 42.576 26.3521 42.656C25.7441 42.688 25.1041 42.704 24.4481 42.704C23.6801 42.704 22.8641 42.688 22.0161 42.64C24.8481 45.472 28.3361 47.664 34.8001 47.696C35.2641 47.712 35.7441 47.696 36.2081 47.68Z" fill="#BDD9D7"/>
<path d="M31.6162 44.048C31.1842 43.472 30.7682 42.736 30.4642 42.032C29.3122 42.368 27.9362 42.576 26.3362 42.656C27.4402 43.264 29.0242 43.824 31.6162 44.048Z" fill="#D3ECEC"/>
</svg>
