<svg width="80" height="80" viewBox="0 0 80 80" fill="none" xmlns="http://www.w3.org/2000/svg">
<path d="M79.8907 0.109253H0.109253V79.8907H79.8907V0.109253Z" fill="#F7DF1E"/>
<path d="M21.0863 66.7803L27.1912 63.0863C28.3694 65.1737 29.4404 66.942 32.0109 66.942C34.4743 66.942 36.0284 65.9781 36.0284 62.2295V36.7366H43.5256V62.3344C43.5256 70.1005 38.9748 73.6349 32.3322 73.6349C26.3344 73.6349 22.8546 70.5289 21.0863 66.7803Z" fill="black"/>
<path d="M47.5978 65.9782L53.7027 62.4437C55.3093 65.0689 57.3989 66.9967 61.0929 66.9967C64.1989 66.9967 66.1814 65.4426 66.1814 63.3006C66.1814 60.7301 64.1464 59.8186 60.7191 58.3213L58.8459 57.517C53.436 55.2153 49.8491 52.3235 49.8491 46.2164C49.8491 40.5924 54.1333 36.3082 60.8284 36.3082C65.5956 36.3082 69.0229 37.9694 71.4863 42.306L65.6481 46.0547C64.3628 43.753 62.9705 42.8416 60.8284 42.8416C58.6317 42.8416 57.2393 44.2339 57.2393 46.0547C57.2393 48.3039 58.6317 49.2153 61.8448 50.6077L63.718 51.4099C70.0918 54.1421 73.6787 56.9268 73.6787 63.1913C73.6787 69.9388 68.3759 73.635 61.2546 73.635C54.2929 73.635 49.7945 70.3148 47.5978 65.9782Z" fill="black"/>
</svg>
