<svg width="80" height="78" viewBox="0 0 80 78" fill="none" xmlns="http://www.w3.org/2000/svg">
<path d="M25.5468 76.7031C23.6874 76.7031 21.9218 75.875 20.7343 74.375L2.62491 51.875C1.43741 50.375 0.968665 48.4688 1.43741 46.5938L7.90616 18.5C8.31241 16.6406 9.56241 15.1406 11.2655 14.3125L37.4374 1.8125C38.2655 1.40625 39.203 1.1875 40.1249 1.1875C41.0624 1.1875 41.9843 1.39062 42.8124 1.8125L68.9843 14.2812C70.6874 15.1094 71.9374 16.6094 72.3437 18.4688L78.8124 46.5625C79.2187 48.4219 78.8124 50.3438 77.6249 51.8438L59.5312 74.3281C58.3437 75.7812 56.578 76.6562 54.7187 76.6562L25.5468 76.7031Z" fill="#326DE6"/>
<path d="M40.0782 2.48437C40.7969 2.48437 41.5313 2.64062 42.2032 2.95312L68.375 15.4062C69.7188 16.0781 70.75 17.3125 71.0625 18.7656L77.5313 46.8594C77.8907 48.3594 77.5313 49.9062 76.5469 51.0937L58.4375 73.6094C57.5 74.7969 56.0625 75.4687 54.5625 75.4687H25.5469C24.0469 75.4687 22.5938 74.7969 21.6719 73.6094L3.56253 51.1094C2.62503 49.9219 2.26565 48.375 2.57815 46.875L9.0469 18.7812C9.40628 17.2812 10.3906 16.0469 11.7344 15.4219L37.9063 2.90625C38.5782 2.64062 39.3594 2.48437 40.0782 2.48437ZM40.0782 0.046875C38.9844 0.046875 37.9063 0.3125 36.875 0.765625L10.7031 13.2969C8.64065 14.2812 7.18753 16.0937 6.6719 18.3125L0.203151 46.3906C-0.312474 48.6094 0.203151 50.8906 1.65628 52.7031L19.7656 75.2031C21.1563 76.9687 23.2813 77.9375 25.5 77.9375H54.5157C56.7344 77.9375 58.8594 76.9531 60.25 75.2031L78.3594 52.7031C79.8125 50.9375 80.3281 48.6094 79.8125 46.3906L73.3438 18.2969C72.8282 16.0781 71.375 14.2656 69.3125 13.2812L43.2344 0.765625C42.25 0.3125 41.1563 0.046875 40.0782 0.046875Z" fill="white"/>
<path d="M66.2969 44.6406C66.2501 44.6406 66.2501 44.6406 66.2969 44.6406H66.2501C66.2032 44.6406 66.1407 44.6406 66.1407 44.5938C66.0313 44.5938 65.9376 44.5469 65.8282 44.5469C65.4688 44.5 65.1563 44.4375 64.8438 44.4375C64.6876 44.4375 64.5313 44.4375 64.3282 44.3906H64.2813C63.1876 44.2812 62.3126 44.1875 61.4844 43.9219C61.1251 43.7656 61.0157 43.5625 60.9219 43.3594C60.9219 43.3125 60.8751 43.3125 60.8751 43.25L60.2032 43.0469C60.5157 40.6719 60.4063 38.1875 59.8438 35.75C59.2813 33.3125 58.2969 31.0469 56.9532 28.9688L57.4688 28.5V28.3906C57.4688 28.125 57.5157 27.875 57.7344 27.6094C58.3594 27.0469 59.1251 26.5781 60.0626 26C60.2188 25.8906 60.3751 25.8438 60.5313 25.7344C60.8438 25.5781 61.0938 25.4219 61.4063 25.2188C61.4532 25.1719 61.5626 25.1094 61.6719 25.0156C61.7188 24.9688 61.7813 24.9688 61.7813 24.9062C62.5001 24.2812 62.6563 23.25 62.1407 22.5781C61.8751 22.2187 61.4219 22.0156 60.9532 22.0156C60.5469 22.0156 60.1719 22.1719 59.8126 22.4219C59.7657 22.4687 59.7657 22.4688 59.7032 22.5313C59.5938 22.5781 59.5469 22.6875 59.4376 22.7344C59.1719 23 58.9688 23.2031 58.7657 23.4531C58.6563 23.5625 58.5626 23.7188 58.4063 23.8125C57.6876 24.5938 57.0157 25.2031 56.3438 25.6719C56.1876 25.7812 56.0313 25.8281 55.8751 25.8281C55.7657 25.8281 55.6719 25.8281 55.5626 25.7812H55.4532L54.8282 26.1875C54.1563 25.4688 53.4376 24.8437 52.7032 24.2187C49.5938 21.7812 45.8282 20.2812 41.8907 19.9219L41.8438 19.25C41.7969 19.2031 41.7969 19.2031 41.7344 19.1406C41.5782 18.9844 41.3751 18.8281 41.3282 18.4687C41.2813 17.6406 41.3751 16.7031 41.4844 15.6719V15.625C41.4844 15.4688 41.5313 15.2656 41.5938 15.1094C41.6407 14.7969 41.7032 14.4844 41.7501 14.125V13.8125V13.6563C41.7501 12.7188 41.0313 11.9531 40.1407 11.9531C39.7344 11.9531 39.3126 12.1562 39.0001 12.4687C38.6876 12.7812 38.5313 13.1875 38.5313 13.6563V13.7656V14.0781C38.5313 14.4375 38.5782 14.75 38.6876 15.0625C38.7344 15.2188 38.7344 15.375 38.7969 15.5781V15.625C38.9063 16.6562 39.0626 17.5938 38.9532 18.4219C38.9063 18.7812 38.6876 18.9375 38.5469 19.0938C38.5001 19.1406 38.5001 19.1406 38.4376 19.2031L38.3907 19.875C37.4532 19.9844 36.5313 20.0781 35.5938 20.2812C31.6094 21.1562 28.0938 23.1719 25.3594 26.0781L24.8438 25.7188H24.7344C24.6251 25.7188 24.5313 25.7656 24.4219 25.7656C24.2657 25.7656 24.1094 25.7188 23.9532 25.6094C23.2813 25.1406 22.6094 24.4688 21.8907 23.7031C21.7813 23.5938 21.6876 23.4375 21.5313 23.3438C21.3282 23.0781 21.1251 22.875 20.8594 22.625C20.8126 22.5781 20.7032 22.5156 20.5938 22.4219C20.5469 22.375 20.4844 22.375 20.4844 22.3125C20.1719 22.0469 19.7657 21.9063 19.3438 21.9063C18.8751 21.9063 18.4063 22.1094 18.1563 22.4687C17.6407 23.1406 17.7969 24.1719 18.5157 24.7969C18.5626 24.7969 18.5626 24.8437 18.6251 24.8437C18.7344 24.8906 18.7813 25 18.8907 25.0469C19.2032 25.25 19.4532 25.4062 19.7657 25.5625C19.9219 25.6094 20.0782 25.7187 20.2344 25.8281C21.1719 26.3906 21.9376 26.8594 22.5626 27.4375C22.8282 27.7031 22.8282 27.9531 22.8282 28.2188V28.3281L23.3438 28.7969C23.2344 28.9531 23.1407 29.0625 23.0782 29.2031C20.4844 33.2969 19.5157 38.0938 20.1876 42.8594L19.5157 43.0625C19.5157 43.1094 19.4688 43.1094 19.4688 43.1719C19.3594 43.375 19.2032 43.5781 18.9063 43.7344C18.1251 44 17.2032 44.0938 16.1094 44.2031H16.0626C15.9063 44.2031 15.7032 44.2031 15.5469 44.25C15.2344 44.25 14.9219 44.2969 14.5626 44.3594C14.4532 44.3594 14.3594 44.4062 14.2501 44.4062C14.2032 44.4062 14.1407 44.4062 14.0938 44.4531C13.1563 44.6562 12.5938 45.5469 12.7501 46.3594C12.9063 47.0781 13.5782 47.5469 14.4063 47.5469C14.5626 47.5469 14.6719 47.5469 14.8126 47.5C14.8594 47.5 14.9219 47.5 14.9219 47.4531C15.0313 47.4531 15.1251 47.4062 15.2344 47.4062C15.5938 47.2969 15.8594 47.2031 16.1719 47.0469C16.3282 47 16.4844 46.8906 16.6407 46.8438H16.6876C17.6719 46.4844 18.5469 46.1719 19.3751 46.0625H19.4844C19.7969 46.0625 20.0001 46.2188 20.1563 46.3281C20.2032 46.3281 20.2032 46.375 20.2657 46.375L20.9844 46.2656C22.2188 50.0938 24.6094 53.5 27.7657 55.9844C28.4844 56.5469 29.2188 57.0156 29.9844 57.4844L29.6719 58.1562C29.6719 58.2031 29.7188 58.2031 29.7188 58.2656C29.8282 58.4688 29.9219 58.7344 29.8282 59.0938C29.5157 59.875 29.0469 60.6406 28.4844 61.5313V61.5781C28.3751 61.7344 28.2813 61.8438 28.1719 61.9844C27.9688 62.25 27.8126 62.5 27.6094 62.8125C27.5626 62.8594 27.5001 62.9688 27.4532 63.0781C27.4532 63.125 27.4063 63.1875 27.4063 63.1875C27.0001 64.0625 27.2969 65.0469 28.0782 65.4062C28.2813 65.5156 28.4844 65.5625 28.7032 65.5625C29.3282 65.5625 29.9376 65.1563 30.2501 64.5781C30.2501 64.5313 30.2969 64.4688 30.2969 64.4688C30.3438 64.3594 30.4063 64.2656 30.4532 64.2031C30.6094 63.8438 30.6563 63.5781 30.7657 63.2656C30.8126 63.1094 30.8751 62.9531 30.9219 62.7969C31.2813 61.7656 31.5469 60.9375 32.0157 60.2031C32.2188 59.8906 32.4844 59.8438 32.6876 59.7344C32.7344 59.7344 32.7344 59.7344 32.7969 59.6875L33.1563 59.0156C35.4376 59.8906 37.9219 60.3594 40.3907 60.3594C41.8907 60.3594 43.4376 60.2031 44.8907 59.8438C45.8282 59.6406 46.7032 59.375 47.5782 59.0625L47.8907 59.625C47.9376 59.625 47.9376 59.625 48.0001 59.6719C48.2657 59.7188 48.4688 59.8281 48.6719 60.1406C49.0782 60.8594 49.3907 61.75 49.7657 62.7344V62.7813C49.8126 62.9375 49.8751 63.0938 49.9219 63.25C50.0313 63.5625 50.0782 63.875 50.2344 64.1875C50.2813 64.2969 50.3438 64.3438 50.3907 64.4531C50.3907 64.5 50.4376 64.5625 50.4376 64.5625C50.7501 65.1875 51.3751 65.5469 51.9844 65.5469C52.1876 65.5469 52.3907 65.5 52.6094 65.3906C52.9688 65.1875 53.2813 64.875 53.3907 64.4531C53.5001 64.0469 53.5001 63.5781 53.2813 63.1562C53.2813 63.1094 53.2344 63.1094 53.2344 63.0469C53.1876 62.9375 53.1251 62.8438 53.0782 62.7813C52.9219 62.4688 52.7188 62.2188 52.5157 61.9531C52.4063 61.7969 52.3126 61.6875 52.2032 61.5469V61.5C51.6407 60.625 51.1094 59.8438 50.8594 59.0625C50.7501 58.7031 50.8594 58.5 50.9063 58.2344C50.9063 58.1875 50.9532 58.1875 50.9532 58.125L50.6876 57.5C53.4219 55.8906 55.7501 53.625 57.5157 50.8281C58.4532 49.375 59.1719 47.7812 59.6876 46.1719L60.3126 46.2812C60.3594 46.2812 60.3594 46.2344 60.4219 46.2344C60.6251 46.125 60.7813 45.9688 61.0938 45.9688H61.2032C62.0313 46.0781 62.9063 46.375 63.8907 46.75H63.9376C64.0938 46.7969 64.2501 46.9062 64.4063 46.9531C64.7188 47.1094 64.9688 47.2188 65.3438 47.3125C65.4532 47.3125 65.5469 47.3594 65.6563 47.3594C65.7032 47.3594 65.7657 47.3594 65.8126 47.4062C65.9688 47.4531 66.0782 47.4531 66.2188 47.4531C67.0001 47.4531 67.6719 46.9375 67.8751 46.2656C67.7969 45.7188 67.2344 44.8906 66.2969 44.6406ZM42.3594 42.1094L40.0782 43.2031L37.7969 42.1094L37.2344 39.6719L38.7813 37.7031H41.3126L42.8594 39.6719L42.3594 42.1094ZM55.8594 36.7188C56.2657 38.4844 56.3751 40.2344 56.2188 41.9375L48.2969 39.6563C47.5782 39.4531 47.1563 38.7188 47.3126 38C47.3594 37.7969 47.4688 37.5938 47.6251 37.4375L53.8907 31.7969C54.7657 33.2656 55.4376 34.9062 55.8594 36.7188ZM51.4063 28.7031L44.6251 33.5156C44.0626 33.875 43.2813 33.7812 42.8126 33.2031C42.6563 33.0469 42.6094 32.8437 42.5469 32.6406L42.0782 24.2031C45.6719 24.625 48.9219 26.2188 51.4063 28.7031ZM36.4063 24.4688C36.9688 24.3594 37.5001 24.2656 38.0626 24.1562L37.5938 32.4375C37.5469 33.1562 36.9688 33.7813 36.2032 33.7813C36.0001 33.7813 35.7344 33.7344 35.5782 33.625L28.7032 28.7031C30.8126 26.5781 33.4532 25.1406 36.4063 24.4688ZM26.2188 31.8125L32.3751 37.2969C32.9376 37.7656 33.0001 38.6406 32.5313 39.2031C32.3751 39.4062 32.1719 39.5625 31.9063 39.6094L23.8907 41.9375C23.5782 38.4375 24.3594 34.8594 26.2188 31.8125ZM24.8126 45.8281L33.0313 44.4375C33.7032 44.3906 34.3282 44.8438 34.4844 45.5312C34.5313 45.8438 34.5313 46.0938 34.4376 46.3594L31.2813 53.9688C28.3907 52.0938 26.0626 49.2344 24.8126 45.8281ZM43.7032 56.125C42.5157 56.3906 41.3282 56.5313 40.0782 56.5313C38.2657 56.5313 36.5157 56.2188 34.8594 55.7031L38.9532 48.3125C39.3594 47.8438 40.0469 47.6406 40.6094 47.9531C40.8751 48.1094 41.0782 48.3125 41.2344 48.5156L45.2188 55.7031C44.7344 55.8594 44.2188 55.9688 43.7032 56.125ZM53.7813 48.9375C52.4844 51 50.7813 52.6563 48.8126 53.9531L45.5469 46.1406C45.3907 45.5156 45.6563 44.8438 46.2657 44.5312C46.4688 44.4219 46.7344 44.375 46.9844 44.375L55.2657 45.7656C54.9688 46.9219 54.4532 47.9531 53.7813 48.9375Z" fill="white"/>
</svg>
