<svg width="80" height="80" viewBox="0 0 80 80" fill="none" xmlns="http://www.w3.org/2000/svg">
<rect width="80" height="80" fill="white"/>
<path d="M70.2446 38.2452C70.187 38.2644 70.1103 38.3986 70.1103 38.4753C70.0912 38.9739 70.0912 40.3162 70.0912 41.2366C70.0912 41.2557 70.1295 41.3133 70.1679 41.3133C70.3596 41.3324 70.8198 41.3324 71.2033 41.3324C71.7402 41.3324 72.0662 41.2557 72.2388 41.179C72.699 40.9489 72.9099 40.4504 72.9099 39.9135C72.9099 38.6863 72.047 38.2261 70.7815 38.2261C70.6856 38.2069 70.4363 38.2069 70.2446 38.2452ZM73.5044 43.9019C73.5044 42.6555 72.5839 41.9652 70.9157 41.9652C70.839 41.9652 70.3021 41.9461 70.187 41.9844C70.1487 42.0036 70.0912 42.0228 70.0912 42.0611C70.0912 42.9623 70.072 44.3813 70.1103 44.9374C70.1295 45.1867 70.3213 45.5126 70.5322 45.6277C70.7623 45.7619 71.28 45.7811 71.6252 45.7811C72.6415 45.7427 73.5044 45.1867 73.5044 43.9019ZM67.6751 37.5549C67.8093 37.5549 68.1736 37.5933 69.1516 37.5933C70.072 37.5933 70.8006 37.5741 71.7019 37.5741C72.7949 37.5741 74.3097 37.9576 74.3097 39.6067C74.3097 40.412 73.7345 41.064 73.0058 41.3708C72.9675 41.39 72.9675 41.4091 73.0058 41.4283C74.0604 41.6968 75 42.3487 75 43.5951C75 44.8032 74.233 45.5702 73.14 46.0495C72.4689 46.3372 71.6444 46.433 70.7815 46.433C70.1295 46.433 68.4038 46.3563 67.445 46.3755C67.3491 46.3372 67.5409 45.877 67.6176 45.8003C67.8477 45.7811 68.0202 45.7811 68.2695 45.7044C68.6147 45.6085 68.653 45.5126 68.6914 44.9949C68.7106 44.5539 68.7106 42.9815 68.7106 41.8693C68.7106 40.3353 68.7297 39.2999 68.7106 38.8013C68.6914 38.4178 68.5572 38.2836 68.2887 38.2069C68.0778 38.1685 67.7134 38.111 67.4258 38.0727C67.3875 38.0343 67.5984 37.6125 67.6751 37.5549ZM60.3885 45.4168C60.6953 45.666 61.2897 45.7619 61.8075 45.7619C62.4978 45.7619 63.1689 45.6277 63.8209 45.0333C64.492 44.4196 64.9522 43.4992 64.9522 42.0036C64.9522 40.5846 64.4153 39.4149 63.3031 38.7246C62.6704 38.3411 61.865 38.1685 60.9254 38.1685C60.657 38.1685 60.3885 38.1877 60.2159 38.2644C60.1776 38.2836 60.0817 38.3986 60.0817 38.4753C60.0625 38.7246 60.0625 40.6805 60.0625 41.8118C60.0625 42.9815 60.0625 44.6306 60.0817 44.8223C60.1009 44.9949 60.1968 45.2825 60.3885 45.4168ZM57.5122 37.5549C57.7615 37.5549 58.6819 37.5933 59.123 37.5933C59.9091 37.5933 60.4844 37.5549 61.9992 37.5549C63.2648 37.5549 64.3194 37.9001 65.0864 38.5329C66.0068 39.3191 66.4862 40.4312 66.4862 41.7735C66.4862 43.6718 65.6233 44.784 64.7413 45.4168C63.8784 46.0687 62.7279 46.433 61.1172 46.433C60.2543 46.433 58.7778 46.4139 57.5506 46.3947H57.5314C57.4739 46.2796 57.6273 45.8386 57.7423 45.8194C58.0683 45.7811 58.1642 45.7619 58.3176 45.7044C58.586 45.6085 58.6244 45.4551 58.6627 44.9949C58.7011 44.132 58.6819 43.0774 58.6819 41.8885C58.6819 41.0448 58.7011 39.3958 58.6627 38.8588C58.6244 38.4178 58.4326 38.3028 58.0491 38.2261C57.8574 38.1877 57.6081 38.1302 57.263 38.0918C57.2246 38.0151 57.4547 37.6316 57.5122 37.5549Z" fill="#8E714E"/>
<path d="M42.2487 45.8962C41.9419 45.8578 41.7118 45.8003 41.4242 45.6853C41.3858 45.6661 41.3283 45.5319 41.3283 45.4743C41.3091 45.0333 41.3091 43.7677 41.3091 42.924C41.3091 42.2337 41.1941 41.6393 40.9065 41.2366C40.5613 40.7572 40.0819 40.4696 39.4491 40.4696C38.8931 40.4696 38.1452 40.8531 37.5316 41.3708C37.5124 41.39 37.4166 41.4667 37.4357 41.3325C37.4357 41.1983 37.4549 40.9106 37.4741 40.7189C37.4933 40.5463 37.3782 40.4504 37.3782 40.4504C36.9755 40.6614 35.8442 40.9106 35.4224 40.949C35.1156 41.0065 35.0388 41.2941 35.3648 41.4092H35.384C35.7292 41.5051 35.9593 41.6201 36.1318 41.7352C36.2661 41.8311 36.2469 41.9845 36.2469 42.0803C36.2661 43.0199 36.2661 44.4772 36.2277 45.2826C36.2085 45.5894 36.1318 45.7044 35.9017 45.762L35.9209 45.7428C35.7483 45.7811 35.6141 45.8195 35.384 45.8387C35.3073 45.9154 35.3073 46.318 35.384 46.4139C35.5182 46.4139 36.2469 46.3756 36.8605 46.3756C37.685 46.3756 38.1261 46.4139 38.337 46.4139C38.4329 46.318 38.452 45.9345 38.3945 45.8387C38.1452 45.8195 37.9727 45.8003 37.8193 45.7428C37.5892 45.6853 37.5316 45.5702 37.5124 45.3209C37.4933 44.6498 37.4933 43.2308 37.4933 42.2721C37.4933 42.0036 37.57 41.8886 37.6467 41.8119C37.9343 41.5626 38.4137 41.39 38.8164 41.39C39.219 41.39 39.4875 41.5242 39.6792 41.6777C39.9477 41.9078 40.0436 42.2337 40.0819 42.4638C40.1394 43.0007 40.1203 44.0745 40.1203 45.0141C40.1203 45.5127 40.0819 45.6469 39.8902 45.7044C39.7943 45.7428 39.5834 45.8003 39.3149 45.8195C39.219 45.9154 39.2574 46.2989 39.3149 46.3947C39.6792 46.3947 40.1011 46.3564 40.7339 46.3564C41.5201 46.3564 42.0186 46.3947 42.2295 46.3947C42.2679 46.3756 42.2871 45.9921 42.2487 45.8962ZM45.7386 41.0832C45.0675 41.0832 44.6456 41.601 44.6456 42.4063C44.6456 43.2308 45.01 44.1704 46.0454 44.1704C46.218 44.1704 46.544 44.0937 46.6974 43.9211C46.9466 43.691 47.1 43.2308 47.1 42.7515C47.1192 41.716 46.6015 41.0832 45.7386 41.0832ZM45.6427 46.6632C45.3935 46.6632 45.2209 46.7399 45.1058 46.7974C44.5689 47.1426 44.3388 47.4686 44.3388 47.8521C44.3388 48.2164 44.473 48.504 44.7798 48.7533C45.1442 49.0601 45.6427 49.2135 46.2947 49.2135C47.5794 49.2135 48.1547 48.5232 48.1547 47.8329C48.1547 47.3535 47.9054 47.0467 47.426 46.855C47.0617 46.7399 46.4289 46.6632 45.6427 46.6632ZM45.7386 49.9422C44.9716 49.9422 44.4155 49.7696 43.9361 49.4053C43.4759 49.0601 43.265 48.5232 43.265 48.1589C43.265 48.063 43.2842 47.7754 43.5143 47.5261C43.6485 47.3727 43.9553 47.0851 44.684 46.5865C44.7031 46.5673 44.7223 46.5673 44.7223 46.529C44.7223 46.4906 44.7031 46.4714 44.6648 46.4714C44.0704 46.2413 43.8978 45.877 43.8403 45.6853V45.6661C43.8211 45.5894 43.8019 45.5127 43.917 45.436C44.0128 45.3785 44.1279 45.3018 44.2621 45.2059C44.473 45.0717 44.7031 44.9374 44.8374 44.8224C44.8566 44.8032 44.8565 44.7649 44.8565 44.7457C44.8565 44.7265 44.8374 44.6882 44.799 44.6882C43.917 44.4005 43.4759 43.7486 43.4759 42.7515C43.4759 42.0995 43.7636 41.5243 44.2813 41.1599C44.6264 40.8915 45.5277 40.5463 46.1029 40.5463H46.1413C46.7357 40.5655 47.0617 40.6805 47.5219 40.8531C47.7712 40.949 48.0205 40.9873 48.3464 40.9873C48.845 40.9873 49.0559 40.8339 49.2285 40.6614C49.2477 40.6805 49.2668 40.7572 49.286 40.9106C49.3052 41.0832 49.2477 41.3133 49.1134 41.4859C49.0176 41.6201 48.7875 41.7352 48.5574 41.7352H48.4998C48.2697 41.716 48.1739 41.6777 48.1739 41.6777L48.1163 41.6968C48.0972 41.716 48.1163 41.7544 48.1355 41.7927L48.1547 41.8119C48.1739 41.9269 48.2314 42.2721 48.2314 42.3488C48.2314 43.3842 47.8095 43.8444 47.3685 44.1704C46.9466 44.4772 46.4481 44.6882 45.892 44.7457C45.8728 44.7457 45.8345 44.7457 45.7194 44.7649C45.6619 44.7649 45.566 44.784 45.5469 44.784H45.566C45.4702 44.8032 45.2209 44.9374 45.2209 45.1484C45.2209 45.3401 45.3359 45.5702 45.8728 45.6086C45.9879 45.6277 46.1029 45.6277 46.218 45.6277C46.9466 45.6853 47.8287 45.7428 48.2506 45.877C48.8258 46.0879 49.1901 46.6057 49.1901 47.2193C49.1901 48.1589 48.519 49.0217 47.4069 49.5587C46.8699 49.8079 46.333 49.9422 45.7386 49.9422ZM52.9293 41.1407C52.6609 41.1407 52.4307 41.1983 52.239 41.3325C51.7404 41.6393 51.4912 42.2337 51.4912 43.135C51.4912 44.784 52.3157 45.9537 53.5046 45.9537C53.8497 45.9537 54.1373 45.8578 54.3674 45.6469C54.7318 45.3401 54.9235 44.7457 54.9235 43.8828C54.9619 42.2337 54.1373 41.1407 52.9293 41.1407ZM53.1594 46.5481C51.0118 46.5481 50.2448 44.9758 50.2448 43.4993C50.2448 42.4638 50.6666 41.6585 51.4912 41.1024C52.0856 40.7381 52.7951 40.5271 53.4279 40.5271C55.0769 40.5271 56.2274 41.6968 56.2274 43.4034C56.2274 44.5539 55.7672 45.4552 54.9044 46.0112C54.4825 46.2797 53.7538 46.5481 53.1594 46.5481ZM30.6669 41.1407C30.3985 41.1407 30.1683 41.1983 29.9766 41.3325C29.478 41.6393 29.2288 42.2337 29.2288 43.135C29.2288 44.784 30.0533 45.9537 31.2422 45.9537C31.5873 45.9537 31.8749 45.8578 32.105 45.6469C32.4694 45.3401 32.6611 44.7457 32.6611 43.8828C32.6803 42.2337 31.8749 41.1407 30.6669 41.1407ZM30.8778 46.5481C28.7302 46.5481 27.9632 44.9758 27.9632 43.4993C27.9632 42.4638 28.3851 41.6585 29.2096 41.1024C29.804 40.7381 30.5135 40.5271 31.1463 40.5271C32.7954 40.5271 33.9459 41.6968 33.9459 43.4034C33.9459 44.5539 33.4857 45.4552 32.6228 46.0112C32.2201 46.2797 31.4914 46.5481 30.8778 46.5481ZM16.4581 46.4139C16.4389 46.3756 16.4006 46.2605 16.4197 46.1263C16.4197 46.0304 16.4389 45.9537 16.4581 45.9345C16.7265 45.8962 16.8608 45.8578 17.0142 45.8195C17.2634 45.762 17.3593 45.6086 17.3785 45.3018C17.4168 44.5348 17.4168 43.0966 17.3977 42.0995V42.0803C17.3977 41.9653 17.3977 41.8311 17.2634 41.7352C17.0525 41.601 16.8224 41.4859 16.4964 41.4092C16.3814 41.3708 16.3047 41.3133 16.3239 41.2366C16.3239 41.1599 16.4006 41.064 16.5731 41.0449C16.995 41.0065 18.0688 40.7381 18.5098 40.5463C18.529 40.5655 18.5674 40.6422 18.5674 40.7572L18.5482 40.8915C18.529 41.0257 18.529 41.1983 18.529 41.3517C18.529 41.4092 18.5865 41.4476 18.6249 41.4476C18.6441 41.4476 18.6824 41.4284 18.7016 41.4284C19.5069 40.7956 20.2356 40.5655 20.6191 40.5655C21.2327 40.5655 21.7121 40.8531 22.0764 41.4667C22.0956 41.5051 22.1339 41.5243 22.1723 41.5243C22.1915 41.5243 22.2298 41.5051 22.249 41.4859C22.9968 40.9106 23.7447 40.5847 24.224 40.5847C25.3937 40.5847 26.084 41.4475 26.084 42.9432C26.084 43.3651 26.084 43.902 26.0649 44.4005C26.0649 44.8416 26.0457 45.2442 26.0457 45.5319C26.0457 45.5894 26.1416 45.8003 26.2758 45.8387C26.4484 45.9345 26.6976 45.9729 27.0044 46.0112H27.0236C27.0428 46.1071 27.0044 46.4331 26.9469 46.4906C26.8702 46.4906 26.7552 46.4906 26.6401 46.4714C26.3908 46.4523 26.0649 46.4523 25.6814 46.4523C24.8952 46.4523 24.4925 46.4714 24.109 46.4906C24.0898 46.3947 24.0706 46.0879 24.109 46.0112C24.3391 45.9729 24.4541 45.9345 24.5884 45.8962C24.8376 45.8195 24.8952 45.7044 24.9143 45.3785C24.9143 45.1292 24.9719 43.0966 24.8952 42.5981C24.8185 42.0995 24.435 41.5051 23.6104 41.5051C23.3036 41.5051 22.8051 41.6393 22.3257 42.0036C22.3065 42.0228 22.2682 42.0995 22.2682 42.1379V42.157C22.3257 42.4255 22.3257 42.7323 22.3257 43.1925V44.017C22.3257 44.5923 22.3065 45.11 22.3257 45.5127C22.3257 45.7811 22.4983 45.8578 22.6325 45.8962C22.7092 45.9154 22.7667 45.9154 22.8242 45.9345C22.9393 45.9537 23.0544 45.9921 23.2269 46.0304C23.2461 46.0879 23.2461 46.2413 23.2078 46.3756C23.1886 46.4523 23.1694 46.4906 23.1502 46.5098C22.7284 46.4906 22.2873 46.4906 21.6354 46.4906C21.4436 46.4906 21.1177 46.5098 20.8492 46.5098C20.6191 46.5098 20.4082 46.529 20.274 46.529C20.2548 46.5098 20.2356 46.4139 20.2356 46.2797C20.2356 46.1646 20.2548 46.0688 20.2931 46.0496C20.3506 46.0304 20.4082 46.0304 20.4657 46.0304C20.6191 46.0112 20.7342 45.9729 20.8684 45.9537C21.0793 45.8962 21.156 45.7811 21.1752 45.4935C21.2135 44.8607 21.2519 43.0583 21.156 42.5981C21.0026 41.8694 20.5808 41.5051 19.9096 41.5051C19.5261 41.5051 19.0276 41.6968 18.6249 42.0036C18.5674 42.0612 18.5098 42.1762 18.5098 42.2913V43.0391C18.5098 43.9403 18.5098 45.0908 18.529 45.5702C18.5482 45.7236 18.5865 45.8962 18.8742 45.9537C18.9317 45.9729 19.0467 45.9921 19.1618 46.0112L19.3919 46.0496C19.4111 46.1263 19.4111 46.4331 19.3535 46.529C19.2193 46.529 19.0851 46.5098 18.8933 46.5098C18.6249 46.4906 18.2797 46.4906 17.9154 46.4906C17.4744 46.4906 17.1484 46.5098 16.8991 46.5098C16.7457 46.4139 16.6115 46.4139 16.4581 46.4139Z" fill="#442D22"/>
<path d="M9.8043 49.4438L9.28657 49.2712C9.28657 49.2712 9.3441 46.625 8.40451 46.4333C7.77173 45.7046 8.50039 15.3694 10.7822 46.3374C10.7822 46.3374 9.99605 46.7209 9.86183 47.392C9.70843 48.0632 9.8043 49.4438 9.8043 49.4438Z" fill="white"/>
<path d="M9.8043 49.4438L9.28657 49.2712C9.28657 49.2712 9.3441 46.625 8.40451 46.4333C7.77173 45.7046 8.50039 15.3694 10.7822 46.3374C10.7822 46.3374 9.99605 46.7209 9.86183 47.392C9.70843 48.0632 9.8043 49.4438 9.8043 49.4438Z" fill="#A6A385"/>
<path d="M10.092 46.8933C10.092 46.8933 14.6173 43.9212 13.5627 37.7084C12.5464 33.2022 10.1303 31.7257 9.86188 31.1505C9.57425 30.7478 9.28662 30.0383 9.28662 30.0383L9.47837 42.5789C9.47837 42.5981 9.09487 46.4331 10.092 46.8933Z" fill="white"/>
<path d="M10.092 46.8933C10.092 46.8933 14.6173 43.9212 13.5627 37.7084C12.5464 33.2022 10.1303 31.7257 9.86188 31.1505C9.57425 30.7478 9.28662 30.0383 9.28662 30.0383L9.47837 42.5789C9.47837 42.5981 9.09487 46.4331 10.092 46.8933Z" fill="#499D4A"/>
<path d="M9.01815 47.0659C9.01815 47.0659 4.76126 44.1705 5.01054 39.0507C5.25981 33.9309 8.25114 31.419 8.84557 30.9588C9.22908 30.5561 9.22908 30.4027 9.26743 30C9.53588 30.5753 9.47836 38.4946 9.51671 39.4342C9.63176 43.0391 9.30578 46.3756 9.01815 47.0659Z" fill="white"/>
<path d="M9.01815 47.0659C9.01815 47.0659 4.76126 44.1705 5.01054 39.0507C5.25981 33.9309 8.25114 31.419 8.84557 30.9588C9.22908 30.5561 9.22908 30.4027 9.26743 30C9.53588 30.5753 9.47836 38.4946 9.51671 39.4342C9.63176 43.0391 9.30578 46.3756 9.01815 47.0659Z" fill="#58AA50"/>
</svg>
