<svg width="80" height="80" viewBox="0 0 80 80" fill="none" xmlns="http://www.w3.org/2000/svg">
<rect width="80" height="80" fill="white"/>
<path d="M21.5189 30.0217H34.7285V31.0746H22.7359V38.9785H34.0174V40.0315H22.7359V48.7011H34.8652V49.7541H21.5189V30.0217ZM35.9045 30.0217H37.313L43.5349 38.6913L49.8935 30.0217L58.5358 19L44.328 39.6075L51.6439 49.7404H50.1807L43.5212 40.5101L36.8343 49.7404H35.3985L42.7691 39.6075L35.9045 30.0217ZM52.1635 31.0746V30.0217H67.2055V31.0746H60.2725V49.7404H59.0555V31.0746H52.1635ZM5 30.0217H6.51787L27.3852 61.2407L18.7566 49.7404L6.27173 31.5122L6.21703 49.7404H5V30.0217ZM67.0961 48.3729C66.85 48.3729 66.6585 48.1815 66.6585 47.9353C66.6585 47.6892 66.85 47.4978 67.0961 47.4978C67.3423 47.4978 67.5337 47.6892 67.5337 47.9353C67.52 48.1815 67.3423 48.3729 67.0961 48.3729ZM68.2858 47.2243H68.9285C68.9422 47.5798 69.1883 47.8123 69.5712 47.8123C69.9951 47.8123 70.2276 47.5525 70.2276 47.0875V44.0791H70.884V47.0875C70.884 47.949 70.3917 48.4413 69.5712 48.4413C68.8054 48.4276 68.2858 47.949 68.2858 47.2243ZM71.7591 47.1832H72.4155C72.4702 47.5935 72.8668 47.8396 73.4274 47.8396C73.9607 47.8396 74.3436 47.5661 74.3436 47.1832C74.3436 46.8551 74.0975 46.6636 73.5368 46.5269L72.9898 46.3901C72.2241 46.2123 71.8685 45.8431 71.8685 45.2141C71.8685 44.462 72.4839 43.956 73.4137 43.956C74.2752 43.956 74.9043 44.462 74.9453 45.1731H74.3026C74.2342 44.7765 73.906 44.5304 73.4001 44.5304C72.8804 44.5304 72.5249 44.7765 72.5249 45.1594C72.5249 45.4602 72.7437 45.638 73.3044 45.7611L73.7693 45.8705C74.6445 46.0756 75 46.4311 75 47.0738C75 47.8943 74.371 48.4003 73.3591 48.4003C72.4292 48.4276 71.8002 47.949 71.7591 47.1832Z" fill="black"/>
</svg>
