<svg width="70" height="78" viewBox="0 0 70 78" fill="none" xmlns="http://www.w3.org/2000/svg">
<path d="M34.6667 77.9333C33.6 77.9333 32.5974 77.6559 31.6587 77.1439L22.144 71.4906C20.7147 70.7013 21.4187 70.4239 21.8667 70.2746C23.808 69.6346 24.1494 69.4853 26.1547 68.3333C26.368 68.1839 26.6454 68.2693 26.88 68.3973L34.176 72.7706C34.4534 72.9199 34.816 72.9199 35.0294 72.7706L63.5734 56.2373C63.8507 56.0879 64 55.8106 64 55.4479V22.4879C64 22.1253 63.8507 21.8479 63.5734 21.6986L35.0294 5.25061C34.752 5.10128 34.3894 5.10128 34.176 5.25061L5.63202 21.6986C5.35469 21.8479 5.20536 22.1893 5.20536 22.4879V55.4693C5.20536 55.7466 5.35469 56.1093 5.63202 56.2586L13.44 60.7599C17.664 62.9146 20.3094 60.3973 20.3094 57.9013V25.3466C20.3094 24.9199 20.672 24.4933 21.1627 24.4933H24.8107C25.2374 24.4933 25.664 24.8559 25.664 25.3466V57.9013C25.664 63.5546 22.592 66.8399 17.216 66.8399C15.5734 66.8399 14.2934 66.8399 10.6454 65.0479L3.11469 60.7599C1.25869 59.6933 0.106689 57.6879 0.106689 55.5333V22.5733C0.106689 20.4186 1.25869 18.4346 3.11469 17.3466L31.6587 0.813279C33.4507 -0.189387 35.8827 -0.189387 37.6747 0.813279L66.2187 17.3466C68.0747 18.4133 69.2267 20.4186 69.2267 22.5733V55.5546C69.2267 57.7093 68.0747 59.6933 66.2187 60.7813L37.6747 77.3146C36.736 77.7199 35.6694 77.9333 34.6667 77.9333ZM43.456 55.2559C30.9334 55.2559 28.352 49.5386 28.352 44.6746C28.352 44.2479 28.7147 43.8213 29.2054 43.8213H32.96C33.3867 43.8213 33.7494 44.0986 33.7494 44.5466C34.3254 48.3439 35.968 50.1999 43.5414 50.1999C49.5574 50.1999 52.1174 48.8346 52.1174 45.6133C52.1174 43.7573 51.392 42.3919 42.0267 41.4746C34.2187 40.6853 29.3547 38.9786 29.3547 32.7493C29.3547 26.9466 34.2187 23.5119 42.368 23.5119C51.52 23.5119 56.0214 26.6693 56.5974 33.5173C56.5974 33.7306 56.5334 33.9439 56.384 34.1573C56.2347 34.3066 56.0214 34.4346 55.808 34.4346H52.096C51.7334 34.4346 51.3707 34.1573 51.3067 33.7946C50.4534 29.8693 48.2347 28.5679 42.368 28.5679C35.7974 28.5679 35.008 30.8506 35.008 32.5786C35.008 34.6479 35.9467 35.2879 44.8 36.4399C53.5894 37.5919 57.7494 39.2346 57.7494 45.3786C57.7067 51.6719 52.544 55.2559 43.456 55.2559Z" fill="#539E43"/>
</svg>
