<svg width="80" height="80" viewBox="0 0 80 80" fill="none" xmlns="http://www.w3.org/2000/svg">
<path d="M39.7188 0.203125C19.4062 0.203125 20.6719 9.01563 20.6719 9.01563L20.6875 18.1406H40.0625V20.875H13C13 20.875 0 19.4063 0 39.8906C0 60.375 11.3438 59.6563 11.3438 59.6563H18.1094V50.1563C18.1094 50.1563 17.75 38.8125 29.2656 38.8125H48.4844C48.4844 38.8125 59.2812 38.9844 59.2812 28.375V10.8281C59.2969 10.8281 60.9375 0.203125 39.7188 0.203125ZM29.0312 6.34375C30.9531 6.34375 32.5156 7.90625 32.5156 9.82813C32.5156 11.75 30.9531 13.3125 29.0312 13.3125C27.1094 13.3125 25.5469 11.75 25.5469 9.82813C25.5312 7.90625 27.0938 6.34375 29.0312 6.34375Z" fill="url(#paint0_linear)"/>
<path d="M40.2812 79.7969C60.5937 79.7969 59.3281 70.9844 59.3281 70.9844L59.3125 61.8594H39.9375V59.125H67.0156C67.0156 59.125 80.0156 60.5938 80.0156 40.1094C80.0156 19.625 68.6718 20.3438 68.6718 20.3438H61.9062V29.8438C61.9062 29.8438 62.2656 41.1875 50.75 41.1875H31.5312C31.5312 41.1875 20.7343 41.0157 20.7343 51.625V69.1719C20.7031 69.1719 19.0625 79.7969 40.2812 79.7969ZM50.9687 73.6563C49.0468 73.6563 47.4843 72.0938 47.4843 70.1719C47.4843 68.25 49.0468 66.6875 50.9687 66.6875C52.8906 66.6875 54.4531 68.25 54.4531 70.1719C54.4687 72.0938 52.9062 73.6563 50.9687 73.6563Z" fill="url(#paint1_linear)"/>
<defs>
<linearGradient id="paint0_linear" x1="7.50243" y1="7.55469" x2="47.149" y2="46.8057" gradientUnits="userSpaceOnUse">
<stop stop-color="#387EB8"/>
<stop offset="1" stop-color="#366994"/>
</linearGradient>
<linearGradient id="paint1_linear" x1="31.832" y1="32.7667" x2="74.4061" y2="73.0133" gradientUnits="userSpaceOnUse">
<stop stop-color="#FFE052"/>
<stop offset="1" stop-color="#FFC331"/>
</linearGradient>
</defs>
</svg>
