<svg width="90" height="80" viewBox="0 0 90 80" fill="none" xmlns="http://www.w3.org/2000/svg">
<path d="M73.7668 25.9877C72.8343 25.6687 71.8773 25.3742 70.8957 25.0798C71.0675 24.4172 71.2147 23.7546 71.3374 23.1166C73.5214 12.5153 72.0981 3.97547 67.2147 1.17793C62.5521 -1.52146 54.8957 1.30062 47.1902 8.00001C46.454 8.63805 45.6932 9.32516 44.957 10.0368C44.4662 9.57056 43.9754 9.10431 43.4846 8.66259C35.3865 1.4724 27.2883 -1.546 22.4294 1.27608C17.7668 3.97547 16.3681 12 18.3313 22.0368C18.5276 23.0184 18.7484 24 18.9938 25.0061C17.8405 25.3252 16.7362 25.6687 15.681 26.0368C6.20857 29.3497 0.147217 34.5276 0.147217 39.9019C0.147217 45.4479 6.65028 51.0184 16.5153 54.4049C17.3006 54.6749 18.1104 54.9203 18.9448 55.1657C18.6748 56.2454 18.4294 57.3252 18.2331 58.3558C16.3681 68.2209 17.8159 76.0491 22.4785 78.7485C27.2883 81.5215 35.3619 78.6749 43.2147 71.8037C43.8282 71.2638 44.4662 70.6749 45.0797 70.0859C45.8895 70.8712 46.6994 71.6074 47.5092 72.2945C55.1165 78.8466 62.6503 81.4969 67.2883 78.7976C72.0981 76.0246 73.6441 67.6074 71.6319 57.3497C71.4846 56.5644 71.2883 55.7792 71.092 54.9448C71.6564 54.773 72.2208 54.6012 72.7607 54.4295C83.0184 51.0184 89.7178 45.5215 89.7178 39.9019C89.6932 34.5276 83.4356 29.3252 73.7668 25.9877ZM71.5337 50.8221C71.0429 50.9939 70.5521 51.1411 70.0368 51.2884C68.9079 47.7055 67.3619 43.8773 65.4969 39.9509C67.2883 36.0982 68.7607 32.3436 69.865 28.7607C70.773 29.0307 71.681 29.3006 72.5398 29.5951C80.8343 32.4417 85.8895 36.6626 85.8895 39.9264C85.865 43.3865 80.4172 47.8773 71.5337 50.8221ZM67.8527 58.1104C68.7607 62.6503 68.8834 66.7239 68.2944 69.9387C67.7546 72.8098 66.6994 74.7239 65.3497 75.5092C62.5276 77.1534 56.4908 75.0184 49.9877 69.4233C49.2515 68.7853 48.4908 68.0982 47.73 67.362C50.2576 64.6135 52.7853 61.3988 55.2392 57.8405C59.5583 57.4479 63.6564 56.8344 67.3619 55.9755C67.5583 56.6871 67.73 57.3988 67.8527 58.1104ZM30.6503 75.2147C27.9018 76.1963 25.6932 76.2209 24.3681 75.4601C21.546 73.8405 20.3681 67.5338 21.9632 59.092C22.1349 58.135 22.3558 57.1288 22.6257 56.1227C26.3067 56.9325 30.3558 57.5215 34.6994 57.865C37.1779 61.3497 39.7791 64.5644 42.3803 67.362C41.8159 67.9019 41.2515 68.4417 40.6626 68.9325C37.2024 71.9755 33.7178 74.135 30.6503 75.2147ZM17.7423 50.7976C13.3742 49.3006 9.76685 47.362 7.28832 45.2515C5.05519 43.3374 3.9509 41.4724 3.9509 39.9264C3.9509 36.6626 8.80979 32.5153 16.9325 29.6687C17.9141 29.3252 18.9448 29.0061 20.0245 28.6871C21.1534 32.3436 22.6257 36.1473 24.3926 40C22.6012 43.9019 21.1043 47.7791 19.9754 51.4847C19.1902 51.2638 18.454 51.043 17.7423 50.7976ZM22.0613 21.3252C20.3681 12.7117 21.4969 6.23314 24.319 4.61351C27.3129 2.87118 33.9386 5.34971 40.9325 11.5583C41.3742 11.9509 41.8159 12.3681 42.2822 12.8098C39.681 15.6074 37.1043 18.7976 34.6503 22.2577C30.4294 22.6503 26.4049 23.2638 22.6994 24.1227C22.454 23.1411 22.2576 22.2086 22.0613 21.3252ZM60.7116 30.8466C59.8282 29.3252 58.9202 27.8282 57.9877 26.3558C60.8343 26.7239 63.5828 27.1902 66.1595 27.7792C65.3988 30.2577 64.4172 32.8344 63.2883 35.4847C62.4785 33.9877 61.6196 32.4172 60.7116 30.8466ZM44.957 15.5092C46.7239 17.4233 48.4908 19.5583 50.2331 21.865C48.4908 21.7914 46.6994 21.7423 44.9079 21.7423C43.1411 21.7423 41.3742 21.7914 39.6319 21.865C41.3742 19.5828 43.1656 17.4479 44.957 15.5092ZM29.1043 30.8957C28.2208 32.4417 27.3865 33.9877 26.5767 35.5338C25.4724 32.8834 24.5153 30.2822 23.73 27.7792C26.2822 27.2147 29.0061 26.7485 31.8527 26.3804C30.8957 27.8282 29.9877 29.3497 29.1043 30.8957ZM31.9264 53.7423C28.9816 53.4233 26.2331 52.9816 23.681 52.4172C24.4662 49.865 25.4478 47.2147 26.5767 44.5153C27.3865 46.0614 28.2208 47.6074 29.1043 49.1534C30.0122 50.7239 30.9448 52.2454 31.9264 53.7423ZM45.0552 64.6135C43.2392 62.6503 41.4233 60.4908 39.6564 58.1595C41.3742 58.2331 43.1165 58.2577 44.9079 58.2577C46.7239 58.2577 48.5399 58.2086 50.3067 58.135C48.5644 60.5153 46.7975 62.6749 45.0552 64.6135ZM63.3129 44.3681C64.5153 47.092 65.5214 49.7423 66.3313 52.2454C63.73 52.8344 60.9325 53.3252 57.9877 53.6687C58.9202 52.1963 59.8282 50.6749 60.7362 49.1043C61.6441 47.5338 62.503 45.9632 63.3129 44.3681ZM57.3987 47.2147C56 49.6442 54.5521 51.9509 53.1043 54.1595C50.454 54.3558 47.7055 54.454 44.9079 54.454C42.1104 54.454 39.411 54.3558 36.8098 54.2086C35.2883 52 33.8159 49.6687 32.4417 47.2638C31.0429 44.8589 29.7668 42.454 28.6135 40.0491C29.7668 37.6442 31.0429 35.2147 32.4172 32.8344C33.7914 30.4295 35.2638 28.1227 36.7607 25.9141C39.4356 25.7178 42.1595 25.6196 44.9079 25.6196C47.681 25.6196 50.4049 25.7178 53.0797 25.9387C54.5521 28.1227 56 30.4295 57.3987 32.8344C58.7975 35.2638 60.0981 37.6687 61.2515 40.0246C60.0981 42.3558 58.7975 44.7853 57.3987 47.2147ZM65.3006 4.49081C68.2944 6.2086 69.4724 13.2025 67.5828 22.3558C67.4601 22.9448 67.3374 23.5338 67.1902 24.1472C63.4846 23.2884 59.4356 22.6503 55.2147 22.2577C52.7607 18.7485 50.2086 15.5583 47.6319 12.8098C48.319 12.1472 49.0061 11.5092 49.6932 10.9203C56.2945 5.12884 62.4785 2.87118 65.3006 4.49081ZM44.9079 31.9264C49.3251 31.9264 52.908 35.5092 52.908 39.9264C52.908 44.3436 49.3251 47.9264 44.9079 47.9264C40.4908 47.9264 36.9079 44.3436 36.9079 39.9264C36.9079 35.5092 40.4908 31.9264 44.9079 31.9264Z" fill="#00D8FF"/>
</svg>
