<svg width="85" height="80" viewBox="0 0 85 80" fill="none" xmlns="http://www.w3.org/2000/svg">
<path d="M58.2528 55.793C61.3563 55.4712 63.7011 52.8045 63.5862 49.6091C63.4712 46.4137 60.8045 43.839 57.6091 43.839H57.4022C54.0919 43.954 51.5402 46.7126 51.6321 50.0229C51.7471 51.6321 52.3908 53.0114 53.3333 53.9769C49.7011 61.1264 44.1609 66.3678 35.816 70.7356C30.1609 73.7241 24.2758 74.8045 18.4137 74.0459C13.6091 73.4022 9.86201 71.2643 7.51719 67.7471C4.0919 62.5057 3.77006 56.8505 6.66661 51.1953C8.6896 47.1264 11.908 44.1379 13.931 42.6436C13.4942 41.2643 12.8735 38.8965 12.5517 37.1953C-2.9196 48.4137 -1.33339 63.5632 3.37926 70.7356C6.8965 76.0689 14.0459 79.3792 21.954 79.3792C24.0919 79.3792 26.2298 79.1723 28.3678 78.6206C42.0229 75.9769 52.3907 67.862 58.2528 55.793ZM77.0574 42.5517C68.9425 33.0574 56.9884 27.816 43.3103 27.816H41.6091C40.6436 25.885 38.6206 24.6206 36.3678 24.6206H36.1609C32.8505 24.7356 30.2988 27.4942 30.3907 30.8045C30.5057 33.9999 33.1724 36.5746 36.3678 36.5746H36.5747C38.9195 36.4597 40.9425 34.9654 41.816 32.9425H43.7471C51.862 32.9425 59.5402 35.2873 66.4827 39.885C71.816 43.4022 75.6551 47.9999 77.793 53.5631C79.6091 58.0459 79.4942 62.4367 77.5862 66.1609C74.5976 71.816 69.5862 74.9195 62.9655 74.9195C58.6896 74.9195 54.6436 73.6321 52.5057 72.6666C51.3333 73.7241 49.1953 75.4482 47.7011 76.5057C52.2988 78.6436 56.9884 79.816 61.4712 79.816C71.7241 79.816 79.3103 74.1609 82.1839 68.5057C85.2643 62.3218 85.0574 51.6321 77.0574 42.5517ZM22.8045 57.6091C22.9195 60.8045 25.5862 63.3792 28.7816 63.3792H28.9885C32.2988 63.2643 34.8505 60.5057 34.7586 57.1953C34.6436 53.9999 31.977 51.4252 28.7816 51.4252H28.5747C28.3678 51.4252 28.0459 51.4252 27.816 51.5402C23.4482 44.2758 21.6321 36.3677 22.2528 27.839C22.6896 21.4252 24.8045 15.885 28.5517 11.2873C31.6551 7.33326 37.6321 5.42522 41.6781 5.31027C52.9885 5.10338 57.793 19.1953 58.1149 24.8505C59.4942 25.1723 61.862 25.908 63.4482 26.4597C62.1609 9.17235 51.4942 0.183838 41.2413 0.183838C31.6321 0.183838 22.7586 7.12637 19.2413 17.3792C14.3218 31.0574 17.5402 44.1838 23.5172 54.5287C23.0114 55.2643 22.6896 56.4367 22.8045 57.6091Z" fill="#764ABC"/>
</svg>
