<svg width="107" height="80" viewBox="0 0 107 80" fill="none" xmlns="http://www.w3.org/2000/svg">
<g clip-path="url(#clip0)">
<path d="M91.9124 45.9855C88.2044 46.0147 84.9635 46.8906 82.2482 48.2336C81.2555 46.2774 80.2628 44.5256 80.0876 43.2409C79.8832 41.7519 79.6496 40.8176 79.8832 39.0366C80.1168 37.2555 81.1679 34.6862 81.1387 34.511C81.1095 34.3066 80.9051 33.4015 78.7737 33.3723C76.6423 33.3431 74.7737 33.7811 74.5693 34.3358C74.365 34.8906 73.9562 36.1752 73.6642 37.5183C73.2847 39.4745 69.3723 46.4234 67.1533 50.0438C66.4234 48.6132 65.8102 47.3869 65.6642 46.3942C65.4598 44.9052 65.2263 43.9709 65.4599 42.1898C65.6934 40.4088 66.7445 37.8395 66.7153 37.6643C66.6861 37.4599 66.4817 36.5548 64.3504 36.5256C62.219 36.4964 60.3504 36.9344 60.146 37.4891C59.9416 38.0438 59.708 39.3869 59.2409 40.6716C58.8029 41.9563 53.6058 53.5475 52.2336 56.5548C51.5328 58.1022 50.9197 59.3285 50.5109 60.146C50.5109 60.146 50.4817 60.2044 50.4234 60.292C50.0438 61.022 49.8394 61.4015 49.8394 61.4015C49.8394 61.4015 49.8394 61.4015 49.8394 61.4307C49.5474 61.9563 49.2263 62.4526 49.0803 62.4526C48.9635 62.4526 48.7591 61.0512 49.1095 59.1533C49.8978 55.1241 51.7372 48.8468 51.708 48.6424C51.708 48.5256 52.0584 47.4453 50.5109 46.8614C48.9927 46.3066 48.438 47.2409 48.3212 47.2409C48.1752 47.2409 48.0876 47.5621 48.0876 47.5621C48.0876 47.5621 49.781 40.5256 44.8467 40.5256C41.781 40.5256 37.5182 43.8833 35.4161 46.9198C34.1022 47.6497 31.2701 49.1679 28.2628 50.8322C27.1241 51.4745 25.927 52.1168 24.8175 52.73C24.7299 52.6424 24.6715 52.5548 24.5839 52.4672C18.6277 46.1022 7.62044 41.6059 8.08759 33.0512C8.26277 29.9271 9.34307 21.7519 29.2555 11.8249C45.635 3.73728 58.6861 5.98546 60.9343 10.949C64.1752 18.0439 53.9562 31.1825 37.0219 33.1095C30.5693 33.8395 27.1825 31.3285 26.3066 30.3942C25.4015 29.4307 25.2847 29.3723 24.9343 29.5475C24.3796 29.8395 24.7299 30.7154 24.9343 31.2117C25.4307 32.5256 27.5328 34.8614 31.0365 36.0293C34.1606 37.0511 41.7226 37.6059 50.8905 34.073C61.1387 30.1022 69.1679 19.0658 66.8029 9.81028C64.438 0.438016 48.8759 -2.65687 34.1314 2.5694C25.3723 5.69349 15.8832 10.5986 9.05109 16.9636C0.934306 24.5548 -0.350366 31.1533 0.175181 33.9271C2.07299 43.7373 15.5912 50.1314 20.9927 54.8614C20.7299 55.0074 20.4671 55.1533 20.2628 55.2701C17.5474 56.6132 7.24087 62.0147 4.67153 67.7081C1.75182 74.1606 5.13869 78.803 7.38686 79.4161C14.3358 81.3431 21.489 77.8687 25.3139 72.146C29.1387 66.4234 28.6715 58.9782 26.9197 55.5913C26.8905 55.5621 26.8905 55.5037 26.8321 55.4745C27.5328 55.0658 28.2628 54.6278 28.9635 54.219C30.3358 53.4015 31.708 52.6424 32.8759 52.0293C32.2044 53.8395 31.7372 56.0001 31.5036 59.1241C31.2117 62.7738 32.7007 67.5329 34.6861 69.4015C35.562 70.219 36.5839 70.2482 37.2555 70.2482C39.562 70.2482 40.5839 68.3504 41.7226 66.073C43.1241 63.2993 44.3796 60.0876 44.3796 60.0876C44.3796 60.0876 42.8029 68.7592 47.0949 68.7592C48.6423 68.7592 50.219 66.7446 50.9197 65.6935C50.9197 65.7227 50.9197 65.7227 50.9197 65.7227C50.9197 65.7227 50.9489 65.6643 51.0365 65.5183C51.1825 65.2555 51.2993 65.1095 51.2993 65.1095V65.0803C51.9124 64.0001 53.3139 61.5183 55.416 57.4015C58.1022 52.1168 60.7007 45.4891 60.7007 45.4891C60.7007 45.4891 60.9343 47.0949 61.7226 49.7811C62.1898 51.3577 63.1533 53.0803 63.9416 54.7738C63.3285 55.6497 62.9197 56.146 62.9197 56.146C62.9197 56.146 62.9197 56.146 62.9489 56.1752C62.4526 56.8468 61.8978 57.5475 61.2847 58.2482C59.1533 60.7884 56.6423 63.6789 56.292 64.5256C55.8832 65.5183 55.9708 66.2482 56.7591 66.8322C57.3139 67.2701 58.3358 67.3285 59.3577 67.2701C61.2555 67.1241 62.5985 66.657 63.2701 66.365C64.292 65.9855 65.5182 65.4307 66.6277 64.584C68.7007 63.0366 69.9854 60.8468 69.8686 57.9563C69.8102 56.3504 69.2847 54.7738 68.6423 53.2555C68.8467 52.9928 69.0219 52.7008 69.1971 52.438C72.4963 47.6205 75.0365 42.365 75.0365 42.365C75.0365 42.365 75.2701 43.9709 76.0584 46.657C76.438 48.0292 77.2555 49.4891 77.9562 50.949C74.8613 53.4599 72.9635 56.3796 72.2628 58.2774C71.0365 61.8103 72 63.4161 73.8102 63.7957C74.6277 63.9709 75.7956 63.5913 76.6423 63.2117C77.7226 62.8614 79.0073 62.2482 80.2336 61.3723C82.3066 59.8249 84.3212 57.6935 84.2044 54.803C84.146 53.4891 83.7956 52.1752 83.2993 50.9198C85.927 49.8395 89.3139 49.2263 93.635 49.7227C102.891 50.803 104.73 56.584 104.38 59.0366C104.029 61.4599 102.073 62.803 101.431 63.2117C100.788 63.6205 100.584 63.7665 100.642 64.0584C100.73 64.4964 101.022 64.4672 101.577 64.3796C102.336 64.2336 106.453 62.4234 106.628 57.9271C107.007 52.1752 101.547 45.9271 91.9124 45.9855ZM20.438 70.073C17.3723 73.4307 13.0803 74.6862 11.2409 73.6059C9.25547 72.4672 10.0438 67.5037 13.8102 63.9709C16.1168 61.8103 19.0657 59.7957 21.0219 58.5694C21.4599 58.3066 22.1314 57.8979 22.9197 57.4307C23.0657 57.3431 23.1241 57.3139 23.1241 57.3139C23.2701 57.2263 23.4453 57.1095 23.5912 57.0219C24.9927 62.1022 23.6788 66.5694 20.438 70.073ZM42.8321 54.8614C41.7518 57.4599 39.5328 64.146 38.1606 63.7665C36.9927 63.4453 36.2628 58.3942 37.927 53.4015C38.7737 50.8906 40.5255 47.8833 41.5766 46.7154C43.2409 44.8468 45.1095 44.2336 45.5474 44.9928C46.1022 45.9855 43.4744 53.2263 42.8321 54.8614ZM61.2847 63.7081C60.8467 63.9417 60.4088 64.0876 60.2044 63.9709C60.0584 63.8833 60.4088 63.5913 60.4088 63.5913C60.4088 63.5913 62.7153 61.1095 63.6496 59.9709C64.1752 59.2993 64.7883 58.5402 65.4599 57.6643C65.4599 57.7519 65.4599 57.8395 65.4599 57.9271C65.4599 60.876 62.5693 62.8906 61.2847 63.7081ZM75.5329 60.438C75.2117 60.2044 75.2701 59.4161 76.3796 56.9928C76.8175 56.0293 77.8102 54.4526 79.562 52.9052C79.7664 53.5183 79.8832 54.1314 79.8832 54.6862C79.854 58.4526 77.1679 59.8541 75.5329 60.438Z" fill="#CD6799"/>
</g>
<defs>
<clipPath id="clip0">
<rect width="106.861" height="80" fill="white"/>
</clipPath>
</defs>
</svg>
