<svg width="78" height="80" viewBox="0 0 78 80" fill="none" xmlns="http://www.w3.org/2000/svg">
<path d="M77.3989 47.8906C76.9399 46.4917 75.7159 45.5081 74.1421 45.2677C73.3989 45.1584 72.5465 45.2021 71.541 45.4207C69.7924 45.7923 68.4809 45.9234 67.541 45.9453C71.1257 39.8906 74.0547 32.9835 75.7159 26.4917C78.4263 15.978 76.9836 11.1912 75.2787 9.02723C70.7979 3.30045 64.2405 0.218483 56.3498 0.131052C52.1312 0.0873359 48.4372 0.917938 46.5137 1.5081C44.7213 1.20209 42.776 1.00537 40.7651 0.983511C36.9618 0.917937 33.6175 1.74854 30.7323 3.45346C29.1367 2.90701 26.6011 2.16384 23.6503 1.68296C16.7214 0.546352 11.1476 1.44253 7.06016 4.30591C2.12027 7.80318 -0.174816 13.8578 0.262343 22.3387C0.39349 25.0272 1.90169 33.2021 4.26234 40.9617C5.61753 45.4207 7.08201 49.1147 8.56835 51.978C10.6886 56.0218 12.9837 58.3824 15.541 59.2349C16.9837 59.7158 19.5847 60.0436 22.317 57.7704C22.6667 58.1857 23.1257 58.601 23.7377 58.9944C24.5246 59.4972 25.4645 59.8906 26.4263 60.1311C29.858 60.9835 33.0711 60.7649 35.8252 59.5628C35.847 60.0436 35.847 60.5245 35.8689 60.9179C35.8908 61.5737 35.9126 62.2076 35.9345 62.8196C36.0875 66.8633 36.3716 70.0327 37.1804 72.2185C37.2241 72.3496 37.2897 72.5245 37.3552 72.7212C37.7705 73.9671 38.4481 76.0655 40.1749 77.7048C41.9673 79.4097 44.1312 79.9125 46.1203 79.9125C47.1257 79.9125 48.0656 79.7813 48.8962 79.6065C51.8689 78.9726 55.2569 77.989 57.705 74.5136C60.0219 71.213 61.1367 66.2731 61.3334 58.448C61.3552 58.2294 61.3771 58.0108 61.3989 57.8141C61.4208 57.683 61.4208 57.53 61.4427 57.3988L61.9891 57.4425H62.1203C65.1585 57.5737 68.8525 56.9398 71.1257 55.8906C72.9836 55.06 78.7541 51.9999 77.3989 47.8906Z" fill="black"/>
<path d="M72.2186 48.6993C63.2132 50.5572 62.5793 47.4971 62.5793 47.4971C72.0875 33.3769 76.0656 15.4534 72.6339 11.0818C63.2787 -0.874455 47.0602 4.78675 46.7979 4.91789L46.7104 4.93975C44.9399 4.56817 42.929 4.34959 40.6995 4.30587C36.6121 4.2403 33.5301 5.37691 31.1913 7.1474C31.1913 7.1474 2.27327 -4.76517 3.62846 22.1201C3.91261 27.8469 11.8252 65.4206 21.2678 54.0545C24.7214 49.9015 28.0438 46.4042 28.0438 46.4042C29.705 47.4971 31.6722 48.0654 33.7705 47.8687L33.9235 47.7376C33.8798 48.2622 33.9017 48.7649 33.9891 49.355C31.5629 52.0654 32.2623 52.5463 27.4099 53.5518C22.4918 54.5572 25.3771 56.3714 27.2569 56.8523C29.552 57.4206 34.8416 58.2294 38.4044 53.2239L38.2514 53.7922C39.2132 54.5572 39.8689 58.754 39.7596 62.5572C39.6503 66.3605 39.5629 68.9835 40.3279 71.0163C41.0711 73.049 41.8361 77.6611 48.2186 76.284C53.552 75.1474 56.3279 72.1747 56.7214 67.2348C56.9837 63.7157 57.6175 64.2403 57.6612 61.0928L58.164 59.6064C58.7323 54.8414 58.2514 53.3113 61.552 54.0108L62.3607 54.0764C64.7869 54.1856 67.9563 53.6829 69.8143 52.8305C73.7924 50.9944 76.1531 47.8906 72.2186 48.6993Z" fill="#336791"/>
<path d="M32.8744 24.6993C32.0656 24.59 31.3225 24.6993 30.9509 24.9616C30.7323 25.1146 30.6667 25.3113 30.6667 25.4206C30.623 25.7485 30.8635 26.1201 30.9946 26.3168C31.4099 26.8632 32.0001 27.2348 32.5902 27.3004C32.6777 27.3222 32.7651 27.3222 32.8525 27.3222C33.8361 27.3222 34.7323 26.5572 34.7979 25.9889C34.9072 25.3113 33.8799 24.8304 32.8744 24.6993Z" fill="white"/>
<path d="M59.7815 24.7213C59.6941 24.1748 58.7105 24 57.7706 24.1311C56.8307 24.2623 55.9345 24.6776 56.0001 25.2459C56.0657 25.683 56.8307 26.4262 57.7706 26.4262C57.858 26.4262 57.9236 26.4262 58.011 26.4044C58.6231 26.3169 59.0821 25.9235 59.3007 25.7049C59.6285 25.3552 59.8034 24.9836 59.7815 24.7213Z" fill="white"/>
<path d="M75.2131 48.4807C74.8634 47.4315 73.7705 47.1037 71.9344 47.4971C66.47 48.6337 64.5246 47.8468 63.8907 47.366C68.1312 40.896 71.6284 33.0927 73.5082 25.814C74.4044 22.3605 74.8853 19.1474 74.929 16.5463C74.9727 13.6829 74.4918 11.5627 73.4864 10.2949C69.4208 5.11458 63.4754 2.31677 56.2404 2.25119C51.2787 2.18562 47.082 3.47524 46.2732 3.82496C44.5683 3.40966 42.6885 3.14737 40.6776 3.10365C36.9618 3.03808 33.7268 3.93425 31.0601 5.74846C29.9016 5.3113 26.9071 4.28398 23.2568 3.69382C16.9399 2.66649 11.9126 3.45338 8.32788 5.9889C4.02186 9.00529 2.05465 14.4261 2.42624 22.0763C2.55738 24.6556 4.02186 32.5681 6.3388 40.1747C9.37706 50.1638 12.6995 55.825 16.1967 56.9834C16.612 57.1146 17.071 57.2239 17.5956 57.2239C18.8634 57.2239 20.4372 56.6556 22.0547 54.7102C24.7432 51.4752 27.2568 48.743 28.1967 47.7594C29.5738 48.5026 31.082 48.896 32.612 48.9397C32.612 48.9834 32.612 49.0272 32.612 49.0709C32.306 49.4425 32.0437 49.7485 31.8251 50.0326C30.7541 51.3878 30.5355 51.672 27.1038 52.3714C26.1202 52.5681 23.541 53.1146 23.4973 54.9288C23.4536 56.9179 26.5574 57.7485 26.929 57.8359C28.153 58.1419 29.3552 58.2949 30.4918 58.2949C33.2459 58.2949 35.6721 57.3987 37.6175 55.6282C37.5519 62.7102 37.8579 69.7048 38.7104 71.825C39.4098 73.5736 41.1148 77.814 46.4918 77.814C47.2787 77.814 48.153 77.7266 49.1148 77.508C54.7323 76.3058 57.1585 73.814 58.0984 68.3496C58.6011 65.4206 59.4754 58.4479 59.8689 54.7102C60.7213 54.9725 61.8361 55.1037 63.0383 55.1037C65.5301 55.1037 68.4153 54.5791 70.2077 53.7266C72.2186 52.8086 75.8689 50.4916 75.2131 48.4807ZM61.8361 23.1911C61.8142 24.3058 61.6612 25.2894 61.5082 26.3386C61.3333 27.4752 61.1585 28.6337 61.1148 30.0326C61.071 31.4097 61.2459 32.8304 61.3989 34.2293C61.7268 37.0272 62.0765 39.8905 60.7432 42.7321C60.5465 42.3605 60.3279 41.967 60.153 41.508C59.9782 41.1146 59.6284 40.4588 59.1257 39.5627C57.1803 36.0873 52.6557 27.9343 54.9727 24.6119C55.6721 23.672 57.4426 22.6446 61.8361 23.1911ZM56.5027 4.4807C62.9727 4.63371 68.0874 7.03808 71.694 11.672C74.47 15.2129 71.4099 31.366 62.5574 45.2895C62.47 45.1802 62.3825 45.0709 62.2951 44.9616C62.2514 44.9179 62.2295 44.8741 62.1858 44.8304C64.4809 41.049 64.0219 37.3113 63.6284 34.0108C63.4754 32.6556 63.3006 31.3659 63.3443 30.1638C63.388 28.8741 63.5629 27.7812 63.7159 26.7321C63.9126 25.4206 64.1312 24.0654 64.0656 22.4698C64.1093 22.2949 64.1312 22.0982 64.1093 21.8796C63.9563 20.3496 62.2295 15.7812 58.6667 11.6282C56.7213 9.35502 53.8798 6.8195 50.0109 5.11458C51.6721 4.743 53.9454 4.41513 56.5027 4.4807ZM20.3279 53.2676C18.5355 55.4097 17.3115 54.9944 16.8962 54.8632C14.2514 53.9889 11.1913 48.3933 8.48088 39.519C6.14208 31.8468 4.76503 24.131 4.65575 21.967C4.30602 15.1255 5.96722 10.3605 9.59564 7.8031C15.4754 3.62824 25.1366 6.12004 29.0273 7.3878C28.9618 7.45338 28.918 7.49709 28.8525 7.54081C22.47 13.9889 22.623 24.9834 22.6448 25.6392C22.6448 25.9015 22.6667 26.2731 22.6885 26.7758C22.7978 28.6337 22.9945 32.0654 22.4481 35.978C21.9454 39.6064 23.0601 43.1474 25.5082 45.7048C25.7705 45.967 26.0328 46.2293 26.2951 46.4479C25.2241 47.6282 22.8634 50.2293 20.3279 53.2676ZM27.1475 44.1747C25.1803 42.12 24.2623 39.2348 24.6776 36.3058C25.2459 32.1966 25.0492 28.59 24.918 26.6665C24.8962 26.4042 24.8962 26.1638 24.8743 25.967C25.8142 25.1364 30.1202 22.8195 33.2022 23.5408C34.6011 23.8687 35.4536 24.8086 35.8251 26.4698C37.6612 34.9944 36.0656 38.5353 34.776 41.3769C34.5137 41.967 34.2514 42.5135 34.0547 43.1037L33.8798 43.5408C33.4645 44.6556 33.071 45.7048 32.8306 46.7102C30.7322 46.6884 28.6995 45.7922 27.1475 44.1747ZM27.4536 55.6501C26.8415 55.4971 26.2951 55.2348 25.9672 55.0162C26.2295 54.8851 26.7104 54.7102 27.5629 54.5354C31.6066 53.7048 32.2186 53.1146 33.5956 51.3878C33.9016 50.9944 34.2732 50.5354 34.7541 49.9889C35.4754 49.1802 35.8251 49.3113 36.4153 49.5517C36.8962 49.7485 37.3771 50.3605 37.5738 51.0381C37.6612 51.366 37.7705 51.9561 37.4208 52.437C34.5792 56.4588 30.4481 56.3933 27.4536 55.6501ZM48.612 75.3441C43.6721 76.3933 41.9235 73.8796 40.765 70.9944C40.0219 69.1364 39.6503 60.743 39.9126 51.4752C39.9126 51.3441 39.8907 51.2348 39.8689 51.1255C39.847 50.9069 39.8033 50.6884 39.7377 50.4698C39.3443 49.1146 38.4044 47.9998 37.2896 47.519C36.8306 47.3441 36.0219 46.9944 35.0383 47.2348C35.2568 46.3605 35.6066 45.3769 36.0219 44.3277L36.1967 43.8905C36.3935 43.3878 36.612 42.8632 36.8743 42.3168C38.2077 39.3222 40.0656 35.2348 38.0547 26.0108C37.3115 22.5572 34.8197 20.8741 31.0164 21.2457C28.7432 21.4862 26.6667 22.4042 25.6394 22.9288C25.4208 23.0381 25.2022 23.1474 25.0273 23.2567C25.3115 19.7812 26.4044 13.2676 30.4918 9.13644C33.0055 6.53535 36.4372 5.24573 40.612 5.3113C48.8306 5.44245 54.0984 9.66103 57.0929 13.1802C59.6503 16.2184 61.0492 19.2567 61.5956 20.9179C57.4208 20.5026 54.6011 21.3113 53.1585 23.3659C50.0328 27.825 54.8634 36.5026 57.2022 40.6774C57.6175 41.4425 57.9891 42.0982 58.1202 42.3823C58.8853 44.2184 59.847 45.4425 60.5683 46.3386C60.7869 46.6228 61.0055 46.8851 61.1585 47.1037C59.8907 47.4752 57.6394 48.3058 57.8361 52.5026C57.6612 54.6009 56.4809 64.4807 55.8907 67.978C55.082 72.59 53.3771 74.3168 48.612 75.3441ZM69.2459 51.7157C67.9563 52.3058 65.7924 52.7649 63.7377 52.8523C61.4645 52.9616 60.3279 52.59 60.0437 52.3714C59.9126 49.7485 60.8962 49.4862 61.9235 49.1802C62.0765 49.1364 62.2514 49.0927 62.4044 49.0271C62.4918 49.1146 62.6011 49.1802 62.7104 49.2457C64.5246 50.4479 67.7814 50.5791 72.3716 49.6392H72.4153C71.8033 50.2512 70.7541 51.0162 69.2459 51.7157Z" fill="white"/>
</svg>
