<svg width="80" height="80" viewBox="0 0 80 80" fill="none" xmlns="http://www.w3.org/2000/svg">
<path d="M0.109253 40V79.8907H40H79.8907V40V0.109253H40H0.109253V40Z" fill="#007ACC"/>
<path d="M17.7529 40.2644L17.7267 43.5322H22.9179H28.1092V58.2863V73.0404H31.7813H35.4535V58.2863V43.5322H40.6447H45.836V40.3278C45.836 38.5551 45.7988 37.0731 45.7464 37.036C45.7092 36.9857 39.3901 36.9595 31.7267 36.9726L17.7835 37.0098L17.7529 40.2644Z" fill="white"/>
<path d="M64.4852 36.918C66.5114 37.4251 68.0568 38.3235 69.4753 39.7923C70.2098 40.577 71.2983 42.0087 71.3879 42.3497C71.4141 42.4502 67.9431 44.7803 65.8404 46.0852C65.7639 46.1355 65.46 45.8076 65.1191 45.3005C64.0939 43.8054 63.0163 43.1606 61.3704 43.047C58.9507 42.883 57.3945 44.1486 57.4076 46.2644C57.4076 46.8852 57.4972 47.2524 57.7486 47.7595C58.2797 48.8612 59.2677 49.5191 62.3715 50.8612C68.083 53.318 70.5267 54.9399 72.0458 57.2437C73.742 59.8142 74.1223 63.9169 72.9704 66.9705C71.7048 70.2885 68.5639 72.542 64.1442 73.2896C62.7759 73.53 59.5343 73.4929 58.0655 73.2262C54.8611 72.6557 51.8229 71.0732 49.9475 68.9967C49.213 68.1858 47.7813 66.0721 47.871 65.9191C47.9081 65.8688 48.2382 65.6655 48.6054 65.4513C48.9595 65.248 50.3016 64.4765 51.5693 63.742L53.8622 62.4131L54.3431 63.1213C55.0141 64.1464 56.483 65.5519 57.3704 66.0218C59.9169 67.3639 63.4119 67.1737 65.1343 65.6284C65.8688 64.9573 66.1726 64.2601 66.1726 63.2349C66.1726 62.3103 66.0589 61.906 65.5781 61.2087C64.9573 60.3213 63.6917 59.5759 60.0939 58.0174C55.9781 56.2448 54.2054 55.1431 52.5835 53.3945C51.6458 52.3825 50.7606 50.7606 50.3934 49.4054C50.0895 48.2776 50.013 45.4535 50.2535 44.3147C51.1016 40.3388 54.1027 37.565 58.4349 36.7409C59.8382 36.4743 63.1037 36.5748 64.4852 36.918Z" fill="white"/>
</svg>
